<?xml version="1.0" encoding="utf-8"?>
<svg version="1.1" id="Layer_1" xmlns="http://www.w3.org/2000/svg" xmlns:xlink="http://www.w3.org/1999/xlink" x="0px" y="0px"
	 viewBox="0 0 2264.189 1631.001" enable-background="new 0 0 2264.189 1631.001" xml:space="preserve">
<g>
	<path d="M2240.087,1297.861c-25.472,68.565-65.146,127.981-117.654,178.875c-78.255,75.797-35.929,52.263-144.861-26.304
		c-69.107-50.141-132.037-47.803-181.725-98.988c-2.688-2.688-4.577-4.096-6.229,1.248
		c-32.833,105.178-65.961,119.09-54.931,171.165c0,0,5.554,20.864,6.786,26.406c0.503,0.485,5.62,28.954,5.742,29.642
		c11.028,61.99-180.311,32.83-247.602-3.956c-23.208-11.258-28.463-24.227-18.716-48.987c53.489-135.794,39.083,3.475,47.982-276.28
		c1.657-53.328,6.954-40.834-20.045-36.834c-2.159,0.33-99.431,11.652-163.283,11.879c-106.922,0.381-169.358-21.034-220.862-33.243
		c-9.11-2.164-10.867-3.162-8.511,3.074c15.887,41.942,64.207,99.684,87.322,122.898c18.207,18.288,24.395,21.178,44.148,35.14
		c23.883,16.786,31.543,37.456,14.912,66.78c-59.391,104.433-247.417,176.394-266.389,150.531c0,0-1.125-1.363-2.222-3.835
		c0,0,0,0-0.01-0.01c-0.264-0.568-0.507-1.177-0.73-1.796c0-0.01-0.01-0.01-0.01-0.01c-4.034-10.802-6.018-34.087-7.669-47.303
		c-5.052-40.611-3.808-62.557-24.6-83.315c-57.948-57.948-54.647-55.286-54.647-55.286c-1.329-1.471-2.648-2.932-3.967-4.402
		c0-0.01-0.02-0.02-0.02-0.02c-5.15-5.786-7.821-8.957-7.821-8.957c-1.278-1.501-2.556-3.013-3.814-4.524
		c0-0.01-0.02-0.02-0.02-0.02c-2.233-2.701-3.753-4.595-3.753-4.595c-11.798-14.638-22.459-30.149-30.808-47.323
		c-0.41-0.842-1.145-1.396-1.745-2.12c-2.608,3.912,1.967-5.633-26.192,56.098c-60.099,131.805-37.154,104.468-55.53,191.109
		c-5.307,24.99-29.648,36.318-52.781,33.578c-21.596-2.4-96.937-17.637-174.492-54.952c-0.01,0-0.02-0.01-0.02-0.01
		c-84.596-40.555-78.41-49.135-36.591-105.44c38.399-51.705,50.396-55.44,65.897-119.165
		c25.472-104.904,11.822-75.97,47.323-186.533c32.496-101.263,71.328-153.597,91.045-198.26c2.485-5.627,2.431-7.152-24.123-67.287
		c-2.441-5.961-19.046-2.098-36.043-3.733c-85.436-8.203-74.246-9.286-110.745-13.472c-88.486-10.034-108.833,22.2-125.333,31.539
		c-10.872,6.691-12.38,0.568-13.38,0.568c-4.135-5.57-5.524-36.748,10.347-65.887c28.882-53.021,68.581-67.115,73.13-69.61
		c6.563-3.602,4.714-5.324,6.624-24.367c0.965-9.589-7.309-3.124-47.08-3.124c-1.583,0.274-3.5,1.806-4.322,3.226
		c-32.693,56.478-130.704,90.269-172.027,48.946c-0.01,0-0.01,0-0.02-0.01c-7.685-7.685,0.685-8.361,9.343-11.352h0.01
		c2.516-0.883,5.001-1.826,7.466-2.81c0.01,0.01,0.01,0.01,0.01,0c7.831-3.141,37.194-16.066,50.174-27.075
		c-14.19-1.006-78.955,4.207-145.916-30.889c0,0-0.01-0.01-0.02-0.01c-1.593-0.832-3.175-1.694-4.758-2.577c0,0-0.01-0.01-0.02-0.01
		c-61.329-34.427-109.433-69.467-141.98-144.445C0.42,440.2,18.033,305.166,110.949,228.489c0,0,0,0,0.01,0
		c3.013-2.496,6.076-4.9,9.191-7.223h0.01c134.36-100.658,279.594-28.067,330.684-70.645c0,0,0.01,0,0.02-0.01
		c36.249-30.298-16.901-73.338,5.559-79.45c21.611-5.81,35.628-22.316,50.245-36.814c35.774-35.531,65.188-12.963,68.748,5.326
		c0.741,3.782-0.426,10.733-0.862,11.169c-4.833,21.857-17.489,19.877-16.211,75.9c1.339,58.241-28.759,96.14-72.735,110.39
		c-49.882,16.173-116.052,5.134-197.784,49.393c-0.01,0.01-0.02,0.01-0.02,0.01c-129.872,70.539-126.183,171.337-73.465,213.304
		c0.01,0,0.01,0,0.01,0c5.562,4.412,11.865,8.08,19.467,11.007h0.01c18.668,7.104,47.562,9.655,77.046,1.4
		c0.01,0,0.01-0.01,0.02-0.01c11.823-3.311,24.751-8.775,38.295-16.931c0.404,0,10.812-7.028,11.189-7.294h0.01
		c5.729-4.002,11.864-8.736,17.357-13.522c0.01,0,0.01,0,0.01,0c7.061-6.186,13.912-13.004,21.08-21.171c0.01,0,0.01,0,0.01-0.01
		c28.524-32.568,59.775-87.016,93.054-137.709c0.01,0,0.01,0,0.01-0.01c104.3-159.334,188.496-114.958,243.849-133.124
		c27.549-9.019,35.265-23.15,57.498-40.953c0.01,0.01,0.02,0,0.02-0.01c3.926-3.149,7.837-6.028,12.467-8.927
		c0,0,2.355-1.488,4.981-2.911c0.01,0,0.02,0,0.02-0.01c3.84-2.093,6.994-3.48,11.301-5.245c0.01,0.01,0.01,0.01,0.01,0
		c45.149-18.186,95.535-12.606,139.423,7.304c0,0,0,0,0.01,0c2.08,0.933,4.149,1.897,6.208,2.901h0.01
		c40.373,19.512,44.529,29.793,51.005,24.783c0.01,0,0.02,0,0.02-0.01c0.355-0.264,0.7-0.548,1.065-0.872
		c0,0,26.752-28.244,43.204-41.815h0.01c30.625-25.211,50.115-30.463,93.936-4.92h0.01c1.978,1.156,3.936,2.333,5.883,3.53
		c0.01,0,0.01,0,0.01,0c17.948,11.16,39.704,27.936,49.423,35.749h0.01c32.131,25.539,18.927,20.827,50.995,17.742
		c71.45-6.802,209.6-29.097,402.131,33.639c0,0,0.01,0,0.02,0c98.585,31.982,208.231,91.017,290.259,165.971h0.01
		c81.336,74.142,136.168,158.972,147.092,265.68c6.141,59.909,3.818,158.862-16.586,230.702c-0.396,1.38-0.112,3.297,0.548,5.021
		c0,0,0.01,0,0.01,0.01c1.768,4.6,16.037,14.273,9.363,32.198c-0.842,2.252-0.486,3.368,0.406,4.058h0.01
		c0.172,0.142,0.375,0.264,0.598,0.365h0.01c0.548,0.264,1.197,0.456,1.856,0.68c0.01-0.01,0.01-0.01,0.02,0
		c1,0.3,26.13,9.653,36.925,15.247c30.217,15.657,36.256,56.009,20.005,71.426c0,0.01-0.01,0.01-0.021,0.01
		c-2.642,2.531-5.796,4.527-8.663,5.752c-0.01,0.01-0.02,0.01-0.031,0.01c-4.58,1.989-9.758,2.759-14.689,1.613
		c-0.01-0.01-0.01-0.01-0.021,0c-10.098-2.297-20.876-8.689-29.205-10.692c0.102,0.984,0.051,1.998,0.325,2.922
		c13.027,43.529,7.056,25.592,23.129,34.521h0.01c16.125,8.722,16.424,27.618,19.487,72.025c0.445,6.457-3.275,8.09-8.359,4.362
		c-20.023-14.72-19.959-20.856-23.514-15.085c-17.909,28.852-19.873,27.952-28.404,18.645c-13.228-14.398-9.966-18.58-18.443-9.637
		c-13.596,14.3-14.654,17.419-17.752,15.744h-0.01c-2.105-1.358-15.369-18.54-17.336-20.583c-2.131-2.215-4.14-1.527-6.716,0.385
		c-5.73,4.249-17.758,10.622-19.284,11.088c-3.288,0.956-5.68-0.74-5.742-4.849c-0.223-17.093-1.664-34.318,4.149-50.965l0.01-0.01
		c6.869-19.77,16.026-20.042,19.061-24.59c0.01-0.01,0.01-0.01,0.01-0.01c2.443-3.661,3.055-24.081,10.195-58.553
		c-13.852,13.736-26.917,30.327-45.923,25.574c-10.968-2.736-19.016-12.456-19.731-25.107c-2.76-49.137,60.165-57.052,61.718-69.773
		c1.593-13.38,7.355-24.397,20.917-29.449c14.234-5.289,12.739-163.292-8.186-199.031c-1.847,8.978-2.861,17.61-5.448,25.726
		c-10.105,31.738-45.846,135.783-57.346,167.98c-24.934,69.892-33.336,41.966-8.288,158.637c0,0,1.156,5.315,1.613,7.355
		c1.597,1.637,12.095,76.751,48.53,116.964c0.01,0,0.01,0.01,0.02,0.02c17.704,19.586,125.688,88.92,131.491,91.948
		C2192.326,1257.077,2257.171,1251.913,2240.087,1297.861z"/>
</g>
</svg>
