<?xml version="1.0" encoding="UTF-8" standalone="no"?>
<!-- Created with Inkscape (http://www.inkscape.org/) -->

<svg
   xmlns:dc="http://purl.org/dc/elements/1.1/"
   xmlns:cc="http://creativecommons.org/ns#"
   xmlns:rdf="http://www.w3.org/1999/02/22-rdf-syntax-ns#"
   xmlns:svg="http://www.w3.org/2000/svg"
   xmlns="http://www.w3.org/2000/svg"
   xmlns:sodipodi="http://sodipodi.sourceforge.net/DTD/sodipodi-0.dtd"
   xmlns:inkscape="http://www.inkscape.org/namespaces/inkscape"
   version="1.1"
   id="svg3087"
   xml:space="preserve"
   width="800"
   height="800"
   viewBox="0 0 800 800"
   sodipodi:docname="rhyno-logo-pdv.svg"
   inkscape:version="0.92.4 (5da689c313, 2019-01-14)"><metadata
     id="metadata3093"><rdf:RDF><cc:Work
         rdf:about=""><dc:format>image/svg+xml</dc:format><dc:type
           rdf:resource="http://purl.org/dc/dcmitype/StillImage" /><dc:title></dc:title></cc:Work></rdf:RDF></metadata><defs
     id="defs3091"><clipPath
       clipPathUnits="userSpaceOnUse"
       id="clipPath3103"><path
         d="M 0,600 H 600 V 0 H 0 Z"
         id="path3101"
         inkscape:connector-curvature="0" /></clipPath></defs><sodipodi:namedview
     pagecolor="#ffffff"
     bordercolor="#666666"
     borderopacity="1"
     objecttolerance="10"
     gridtolerance="10"
     guidetolerance="10"
     inkscape:pageopacity="0"
     inkscape:pageshadow="2"
     inkscape:window-width="1920"
     inkscape:window-height="1018"
     id="namedview3089"
     showgrid="false"
     inkscape:zoom="0.295"
     inkscape:cx="400"
     inkscape:cy="400"
     inkscape:window-x="-8"
     inkscape:window-y="-8"
     inkscape:window-maximized="1"
     inkscape:current-layer="g3095" /><g
     id="g3095"
     inkscape:groupmode="layer"
     inkscape:label="rhyno-logo-pdv"
     transform="matrix(1.3333333,0,0,-1.3333333,0,800)"><g
       id="g3097"><g
         id="g3099"
         clip-path="url(#clipPath3103)"><path
           d="m 232.035,121.512 c 0,0 -5.488,16.176 -1.461,23.131 6.811,5.753 8.634,-6.649 8.634,-6.649 -4.689,3.694 -8.84,-3.035 -7.173,-16.482 m 26.275,144.559 c 1.045,8.129 6.616,17.881 15.208,15.326 7.78,-4.876 0,-14.047 0,-14.047 1.045,4.643 -4.874,18.344 -15.208,-1.279 M 324.015,131.62 286.456,109.311 c 8.412,12.173 15.253,24.4 15.253,24.4 z M 292.169,49.979 c -138.164,0 -250.568,112.405 -250.568,250.567 0,138.164 112.404,250.568 250.568,250.568 19.521,0 38.53,-2.248 56.779,-6.492 -33.43,-33.189 -56.296,-65.264 -60.934,-82.423 9.904,0 20.799,-17.827 20.799,-17.827 0,0 -49.024,-7.459 -78.735,22.582 -5.282,-28.39 -8.42,-48.991 47.702,-65.498 -0.659,-14.526 -29.048,-19.148 -29.048,-19.148 0,0 18.269,-135.583 -56.343,-167.933 -36.125,-9.4 -90.354,-3.53 -132.145,2.76 27.629,-35.892 93.3,-66.869 140.288,-69.219 0.015,-0.018 0.027,-0.036 0.043,-0.055 l 0.207,0.42 c 0.606,1.343 1.134,2.714 1.601,4.109 0.458,1.396 0.858,2.81 1.191,4.24 0.314,1.438 0.582,2.882 0.785,4.339 0.195,1.457 0.332,2.922 0.432,4.389 0.094,1.466 0.145,2.937 0.129,4.407 -0.005,1.468 -0.057,2.94 -0.176,4.404 -0.223,2.931 -0.628,5.843 -1.198,8.716 -1.064,5.261 -2.808,10.433 -5.412,14.943 -3.759,-0.998 -7.499,-1.557 -11.239,-1.983 -4.228,-0.49 -8.46,-0.705 -12.684,-0.864 -8.449,-0.318 -16.885,-0.132 -25.301,0.321 -8.411,0.506 -16.809,1.283 -25.142,2.547 -4.171,0.598 -8.311,1.406 -12.426,2.297 -4.113,0.901 -8.203,1.953 -12.161,3.365 8.199,-1.825 16.513,-2.797 24.843,-3.497 4.163,-0.372 8.333,-0.618 12.503,-0.856 4.171,-0.231 8.347,-0.361 12.52,-0.47 4.173,-0.119 8.348,-0.16 12.516,-0.121 4.17,0.051 8.34,0.093 12.497,0.286 4.156,0.171 8.299,0.49 12.411,0.905 4.097,0.429 8.211,1.013 12.01,2.117 l 1.431,0.417 0.741,-1.207 c 0.837,-1.365 1.621,-2.751 2.271,-4.185 0.667,-1.429 1.222,-2.894 1.724,-4.368 1.006,-2.952 1.749,-5.966 2.286,-9.007 0.54,-3.04 0.847,-6.114 0.939,-9.191 0.062,-1.538 0.051,-3.079 -0.01,-4.615 -0.045,-1.538 -0.164,-3.073 -0.328,-4.606 -0.338,-3.056 -0.933,-6.088 -1.785,-9.048 -0.438,-1.477 -0.942,-2.934 -1.507,-4.367 -0.606,-1.42 -1.275,-2.805 -2.02,-4.155 l -0.618,-1.021 c 26.294,-34.01 14.168,-49.446 18.076,-49.446 3.962,0 26.07,-0.034 37.116,-8.802 3.619,-2.873 9.474,1.345 15.689,8.263 22.348,1.031 62.448,3.073 63.401,4.502 1.317,1.98 11.145,27.485 14.026,35.321 5.283,14.364 33.178,65.864 66.523,83.523 40.769,21.263 30.575,60.334 30.575,60.334 -107.79,91.174 -92.66,209.325 -88.032,261.839 3.701,-1.025 7.366,-2.136 10.997,-3.326 -7.5,-75.153 -0.457,-246.614 168.421,-284.659 C 516.541,138.038 414.454,49.979 292.169,49.979 m 0,534.808 c -156.731,0 -257.083,-124.966 -257.083,-281.695 0,-156.733 100.352,-286.786 257.083,-286.786 156.731,0 284.241,127.508 284.241,284.24 0,156.73 -127.51,284.241 -284.241,284.241"
           style="fill:#000000;fill-opacity:1;fill-rule:nonzero;stroke:none"
           id="path3105"
           inkscape:connector-curvature="0" /></g></g></g></svg>