<?xml version="1.0" encoding="UTF-8" standalone="no"?>
<!-- Created with Inkscape (http://www.inkscape.org/) -->

<svg
   xmlns:dc="http://purl.org/dc/elements/1.1/"
   xmlns:cc="http://creativecommons.org/ns#"
   xmlns:rdf="http://www.w3.org/1999/02/22-rdf-syntax-ns#"
   xmlns:svg="http://www.w3.org/2000/svg"
   xmlns="http://www.w3.org/2000/svg"
   xmlns:sodipodi="http://sodipodi.sourceforge.net/DTD/sodipodi-0.dtd"
   xmlns:inkscape="http://www.inkscape.org/namespaces/inkscape"
   version="1.1"
   id="svg9014"
   xml:space="preserve"
   width="800"
   height="800"
   viewBox="0 0 800 800"
   sodipodi:docname="squirrel-clip-art-pdv.svg"
   inkscape:version="0.92.4 (5da689c313, 2019-01-14)"><metadata
     id="metadata9020"><rdf:RDF><cc:Work
         rdf:about=""><dc:format>image/svg+xml</dc:format><dc:type
           rdf:resource="http://purl.org/dc/dcmitype/StillImage" /><dc:title></dc:title></cc:Work></rdf:RDF></metadata><defs
     id="defs9018"><clipPath
       clipPathUnits="userSpaceOnUse"
       id="clipPath9030"><path
         d="M 0,600 H 600 V 0 H 0 Z"
         id="path9028"
         inkscape:connector-curvature="0" /></clipPath></defs><sodipodi:namedview
     pagecolor="#ffffff"
     bordercolor="#666666"
     borderopacity="1"
     objecttolerance="10"
     gridtolerance="10"
     guidetolerance="10"
     inkscape:pageopacity="0"
     inkscape:pageshadow="2"
     inkscape:window-width="1920"
     inkscape:window-height="1018"
     id="namedview9016"
     showgrid="false"
     inkscape:zoom="0.93453358"
     inkscape:cx="408.47458"
     inkscape:cy="393.22034"
     inkscape:window-x="-8"
     inkscape:window-y="-8"
     inkscape:window-maximized="1"
     inkscape:current-layer="g9022" /><g
     id="g9022"
     inkscape:groupmode="layer"
     inkscape:label="squirrel-clip-art-pdv"
     transform="matrix(1.3333333,0,0,-1.3333333,0,800)"><g
       id="g9024"><g
         id="g9026"
         clip-path="url(#clipPath9030)"><path
           d="m 200.243,320.485 c 0,-1.68 1.362,-3.044 3.043,-3.044 1.681,0 3.043,1.364 3.043,3.044 0,1.681 -1.362,3.043 -3.043,3.043 -1.681,0 -3.043,-1.362 -3.043,-3.043 m -4.388,-0.196 c 3.007,4.6 7.756,6.819 10.606,4.957 2.849,-1.863 2.722,-7.104 -0.286,-11.703 -3.007,-4.602 -7.757,-6.818 -10.606,-4.957 -2.849,1.863 -2.722,7.104 0.286,11.703 M 141.553,237.66 c 7.046,3.732 -3.645,11.114 -6.89,7.058 -0.162,-0.487 -0.156,-10.789 6.89,-7.058 m 248.476,63.036 c 0.557,1.557 1.092,3.167 1.553,4.846 -0.223,-0.432 -0.441,-0.857 -0.675,-1.304 -0.259,-1.209 -0.559,-2.383 -0.878,-3.542 M 542.628,433.85 c 4.12,7.391 6.976,16.453 6.97,26.223 0.025,4.871 -0.635,9.872 -1.937,14.818 -1.327,4.939 -3.301,9.818 -5.884,14.463 -2.583,4.641 -5.767,9.06 -9.529,13.038 -3.769,3.956 -8.089,7.554 -13.06,10.166 -2.465,1.325 -5.152,2.325 -7.875,2.991 -2.706,0.737 -5.442,1.403 -8.211,1.946 -5.534,1.097 -11.182,1.83 -16.866,1.894 -5.679,0.059 -11.392,-0.495 -16.891,-1.947 -4.917,-1.272 -9.622,-3.278 -13.934,-5.88 -0.513,-0.31 -1.022,-0.624 -1.523,-0.951 -9.475,-6.179 -16.47,-15.173 -21.686,-24.417 -5.244,-9.298 -8.964,-18.944 -12.012,-28.184 -2.038,-6.211 -3.751,-12.239 -5.286,-18.034 -0.44,-2.026 -0.865,-4.073 -1.27,-6.144 -1.32,-6.693 -2.444,-13.623 -3.411,-20.681 -0.668,-4.868 -1.256,-9.797 -1.772,-14.766 -0.416,-4.002 -0.783,-8.025 -1.106,-12.055 -0.087,-1.082 -0.18,-2.164 -0.261,-3.248 -0.186,-2.504 -0.35,-5.008 -0.503,-7.51 2.448,8.66 4.937,17.297 7.741,25.826 4.424,13.317 9.539,26.52 17.051,38.364 3.766,5.891 8.177,11.396 13.395,16.051 5.223,4.63 11.273,8.349 17.849,10.751 6.574,2.407 13.592,3.53 20.608,3.655 7.02,0.151 14.037,-0.723 20.928,-2.096 2.654,-1.561 4.688,-4.015 6.247,-6.66 1.568,-2.67 2.669,-5.603 3.405,-8.611 0.72,-3.012 1.082,-6.128 0.87,-9.227 -0.058,-0.773 -0.152,-1.543 -0.282,-2.309 -0.149,-0.761 -0.325,-1.517 -0.569,-2.253 -0.25,-0.733 -0.532,-1.461 -0.917,-2.135 -0.356,-0.692 -0.833,-1.311 -1.337,-1.9 0.509,0.584 0.991,1.201 1.352,1.892 0.392,0.672 0.68,1.398 0.937,2.131 0.249,0.736 0.432,1.494 0.586,2.257 0.138,0.764 0.237,1.536 0.302,2.311 0.237,3.107 -0.101,6.237 -0.802,9.266 -0.715,3.026 -1.799,5.982 -3.357,8.687 -1.557,2.684 -3.593,5.194 -6.309,6.813 l -0.019,0.011 -0.023,0.005 c -6.896,1.474 -13.937,2.451 -21.02,2.396 -7.07,-0.03 -14.182,-1.064 -20.893,-3.418 -6.711,-2.348 -12.931,-6.053 -18.317,-10.699 -5.38,-4.666 -9.943,-10.207 -13.845,-16.133 -7.783,-11.914 -13.121,-25.17 -17.753,-38.504 -1.235,-3.593 -2.411,-7.203 -3.554,-10.822 0.929,3.572 1.878,7.137 2.852,10.693 0.826,3.022 1.66,6.039 2.541,9.043 2.109,7.184 4.401,14.312 7.07,21.291 2.672,6.977 5.72,13.815 9.427,20.284 1.019,1.781 2.098,3.531 3.228,5.244 2.971,4.504 6.34,8.741 10.213,12.489 5.308,5.202 11.65,9.342 18.594,12.017 6.948,2.689 14.436,3.845 21.898,3.901 7.465,0.075 14.909,-0.994 22.207,-2.593 1.066,-0.787 2.115,-1.604 3.088,-2.506 1.002,-0.896 1.941,-1.855 2.853,-2.843 0.897,-0.999 1.77,-2.022 2.578,-3.095 0.819,-1.066 1.593,-2.167 2.306,-3.306 1.443,-2.267 2.694,-4.658 3.708,-7.149 1.014,-2.489 1.791,-5.079 2.27,-7.724 0.481,-2.647 0.66,-5.349 0.498,-8.034 -0.085,-1.343 -0.239,-2.681 -0.498,-4.003 -0.097,-0.666 -0.277,-1.317 -0.437,-1.969 -0.146,-0.66 -0.346,-1.301 -0.562,-1.94 -0.197,-0.644 -0.412,-1.282 -0.677,-1.902 -0.258,-0.621 -0.48,-1.259 -0.791,-1.857 -0.554,-1.23 -1.216,-2.404 -1.893,-3.57 -0.733,-1.129 -1.448,-2.274 -2.289,-3.331 -0.783,-1.099 -1.703,-2.089 -2.571,-3.121 0.874,1.027 1.802,2.01 2.593,3.106 0.847,1.05 1.572,2.191 2.313,3.318 0.686,1.163 1.356,2.334 1.92,3.564 0.317,0.597 0.543,1.235 0.806,1.858 0.27,0.619 0.49,1.256 0.692,1.902 0.22,0.639 0.425,1.283 0.576,1.942 0.164,0.654 0.35,1.306 0.452,1.974 0.269,1.325 0.433,2.67 0.528,4.018 0.179,2.698 0.017,5.418 -0.448,8.082 -0.464,2.666 -1.228,5.275 -2.232,7.789 -1.005,2.512 -2.248,4.928 -3.686,7.219 -0.71,1.152 -1.484,2.265 -2.3,3.344 -0.808,1.087 -1.68,2.124 -2.578,3.138 -0.912,1.001 -1.855,1.975 -2.859,2.887 -0.988,0.929 -2.055,1.77 -3.141,2.584 l -0.034,0.023 -0.045,0.012 c -7.315,1.696 -14.8,2.867 -22.348,2.883 -7.528,0.033 -15.133,-1.039 -22.239,-3.692 -3.549,-1.322 -6.961,-3.015 -10.167,-5.038 -3.212,-2.013 -6.194,-4.385 -8.944,-6.991 -2.608,-2.466 -4.993,-5.145 -7.195,-7.97 -2.453,-3.145 -4.677,-6.469 -6.694,-9.899 -3.837,-6.515 -7.001,-13.393 -9.782,-20.397 -2.776,-7.009 -5.169,-14.157 -7.377,-21.349 -0.511,-1.672 -0.984,-3.353 -1.478,-5.028 0.551,2.274 1.125,4.628 1.727,7.055 1.621,6.471 3.452,13.461 5.662,20.768 2.219,7.3 4.806,14.929 8.101,22.556 3.291,7.618 7.328,15.253 12.604,22.172 1.973,2.591 4.144,5.055 6.494,7.35 0.786,0.767 1.59,1.514 2.414,2.24 3.316,2.873 6.965,5.4 10.889,7.406 3.934,1.985 8.105,3.52 12.396,4.497 4.292,0.98 8.674,1.476 13.032,1.58 8.73,0.205 17.309,-1.117 25.405,-3.049 1.932,-0.578 3.758,-1.621 5.45,-2.73 1.69,-1.132 3.273,-2.397 4.746,-3.748 2.949,-2.702 5.48,-5.727 7.58,-8.907 4.224,-6.358 6.619,-13.375 7.322,-19.994 0.725,-6.637 -0.146,-12.809 -1.653,-18 -1.506,-5.213 -3.565,-9.51 -5.458,-12.907 -1.897,-3.406 -3.644,-5.929 -4.864,-7.62 -1.222,-1.692 -1.908,-2.572 -1.908,-2.572 0,0 0.692,0.874 1.923,2.56 1.231,1.684 2.994,4.199 4.913,7.595 1.916,3.389 4.004,7.679 5.545,12.899 1.544,5.198 2.457,11.392 1.77,18.072 -0.668,6.664 -3.036,13.748 -7.256,20.184 -2.1,3.22 -4.633,6.287 -7.596,9.035 -1.48,1.375 -3.073,2.664 -4.783,3.824 -1.727,1.139 -3.53,2.2 -5.6,2.838 -8.11,2.024 -16.724,3.448 -25.551,3.336 -4.407,-0.06 -8.855,-0.515 -13.228,-1.466 -4.371,-0.946 -8.641,-2.464 -12.678,-4.45 -4.029,-2.006 -7.786,-4.548 -11.204,-7.447 -0.182,-0.157 -0.352,-0.325 -0.531,-0.484 -3.18,-2.807 -6.084,-5.897 -8.657,-9.2 -5.444,-6.988 -9.616,-14.688 -13.023,-22.352 -3.412,-7.675 -6.098,-15.337 -8.409,-22.659 -1.205,-3.838 -2.299,-7.581 -3.315,-11.211 0.547,2.418 1.12,4.896 1.725,7.443 1.963,8.221 4.226,17.096 7.157,26.309 2.943,9.198 6.542,18.781 11.626,27.986 5.058,9.154 11.833,18.011 21.021,24.121 0.009,0.006 0.018,0.013 0.027,0.018 4.566,3.029 9.653,5.353 15.018,6.791 5.373,1.472 10.988,2.07 16.595,2.062 5.611,-0.012 11.214,-0.688 16.715,-1.727 2.754,-0.513 5.481,-1.152 8.18,-1.859 2.72,-0.642 5.299,-1.6 7.74,-2.893 4.897,-2.54 9.188,-6.077 12.937,-9.974 3.743,-3.922 6.922,-8.285 9.504,-12.877 2.584,-4.596 4.565,-9.426 5.905,-14.32 1.314,-4.901 1.994,-9.861 1.99,-14.696 0.053,-9.699 -2.738,-18.716 -6.806,-26.095 -4.089,-7.415 -9.318,-13.282 -14.349,-17.943 -5.078,-4.639 -9.973,-8.141 -14.129,-10.803 -4.146,-2.684 -7.578,-4.508 -9.899,-5.776 -2.354,-1.209 -3.611,-1.853 -3.611,-1.853 0,0 1.259,0.639 3.619,1.836 2.328,1.256 5.769,3.064 9.93,5.732 4.172,2.642 9.088,6.125 14.196,10.748 5.062,4.645 10.334,10.502 14.477,17.93 m -38.477,13.031 c -0.579,2.082 -1.544,4.037 -2.665,5.879 l -0.013,0.021 -0.026,0.005 c -6.751,1.304 -13.634,2.106 -20.536,1.9 -6.889,-0.184 -13.793,-1.34 -20.298,-3.725 -6.511,-2.367 -12.54,-6.013 -17.81,-10.512 -5.287,-4.498 -9.789,-9.851 -13.7,-15.556 -3.912,-5.717 -7.234,-11.811 -10.191,-18.053 -2.955,-6.248 -5.55,-12.652 -7.956,-19.115 -1.532,-4.121 -2.976,-8.27 -4.39,-12.426 -0.173,-2.858 -0.322,-5.709 -0.455,-8.556 2.137,6.808 4.321,13.593 6.702,20.306 2.297,6.461 4.776,12.856 7.611,19.088 2.837,6.228 6.031,12.3 9.805,17.996 3.774,5.686 8.126,11.022 13.26,15.524 5.118,4.503 10.992,8.179 17.384,10.613 6.385,2.451 13.206,3.703 20.053,3.986 6.85,0.308 13.718,-0.386 20.472,-1.582 1.128,-1.816 2.103,-3.75 2.696,-5.809 0.288,-1.033 0.48,-2.107 0.395,-3.181 -0.074,-1.067 -0.522,-2.139 -1.379,-2.815 0.863,0.666 1.325,1.741 1.41,2.811 0.095,1.078 -0.088,2.162 -0.369,3.201 m -27.469,-8.597 c 0,0 -0.505,-0.054 -1.453,-0.155 -0.474,-0.051 -1.06,-0.112 -1.749,-0.186 -0.689,-0.058 -1.477,-0.163 -2.352,-0.332 -0.878,-0.15 -1.851,-0.318 -2.91,-0.501 -1.044,-0.251 -2.174,-0.522 -3.382,-0.813 -1.209,-0.289 -2.453,-0.742 -3.789,-1.142 -1.33,-0.419 -2.676,-1.011 -4.11,-1.547 -2.792,-1.248 -5.796,-2.694 -8.732,-4.631 -1.51,-0.906 -2.937,-2.014 -4.436,-3.092 -1.423,-1.172 -2.93,-2.318 -4.312,-3.65 -2.853,-2.567 -5.553,-5.489 -8.077,-8.629 -2.542,-3.126 -4.911,-6.473 -7.076,-9.944 -2.185,-3.459 -4.203,-7.02 -6.036,-10.601 -1.859,-3.571 -3.547,-7.153 -5.102,-10.651 -1.573,-3.49 -2.973,-6.914 -4.297,-10.162 -1.011,-2.531 -1.959,-4.959 -2.84,-7.258 -0.106,-2.441 -0.203,-4.876 -0.283,-7.3 0.506,1.454 1.037,2.984 1.599,4.599 2.042,5.74 4.495,12.409 7.45,19.414 1.473,3.506 3.076,7.09 4.848,10.663 1.746,3.586 3.673,7.151 5.765,10.614 2.073,3.477 4.349,6.832 6.8,9.969 2.431,3.153 5.041,6.092 7.81,8.684 1.338,1.346 2.803,2.504 4.189,3.694 1.46,1.095 2.852,2.222 4.327,3.146 2.868,1.976 5.816,3.468 8.564,4.762 1.414,0.562 2.739,1.177 4.053,1.62 1.32,0.422 2.552,0.899 3.748,1.211 1.199,0.313 2.319,0.608 3.356,0.878 1.052,0.203 2.019,0.39 2.891,0.558 0.871,0.186 1.656,0.306 2.344,0.377 0.686,0.088 1.269,0.162 1.741,0.222 0.947,0.12 1.451,0.183 1.451,0.183 m -13.834,-18.452 c 0,0 -0.406,-0.127 -1.169,-0.369 -0.757,-0.256 -1.898,-0.553 -3.284,-1.112 -0.696,-0.274 -1.482,-0.539 -2.31,-0.896 -0.823,-0.367 -1.715,-0.762 -2.667,-1.184 -0.929,-0.474 -1.917,-0.978 -2.959,-1.511 -1.009,-0.59 -2.086,-1.188 -3.177,-1.864 -2.155,-1.394 -4.473,-2.951 -6.731,-4.847 -2.287,-1.858 -4.582,-3.963 -6.791,-6.301 -2.237,-2.314 -4.389,-4.854 -6.439,-7.539 -2.068,-2.67 -4.018,-5.5 -5.854,-8.396 -6.699,-10.538 -11.887,-21.895 -15.803,-30.95 -0.059,-2.056 -0.109,-4.103 -0.15,-6.142 0.332,0.854 0.673,1.728 1.028,2.642 3.792,9.479 9.003,22.113 16.028,33.766 1.749,2.912 3.612,5.756 5.596,8.447 1.966,2.704 4.035,5.27 6.193,7.612 2.132,2.365 4.357,4.504 6.578,6.4 2.193,1.933 4.455,3.53 6.564,4.965 1.067,0.699 2.124,1.318 3.114,1.93 1.024,0.553 1.995,1.079 2.908,1.572 0.939,0.445 1.818,0.859 2.63,1.244 0.818,0.375 1.593,0.658 2.282,0.947 1.37,0.592 2.502,0.914 3.253,1.19 0.756,0.258 1.16,0.396 1.16,0.396 m -0.452,-78.933 c 0,0 -1.943,-0.58 -5.341,-1.598 -1.654,-0.635 -3.707,-1.305 -5.985,-2.266 -1.132,-0.496 -2.337,-1.025 -3.607,-1.582 -1.262,-0.578 -2.544,-1.277 -3.908,-1.953 -1.375,-0.658 -2.72,-1.502 -4.149,-2.313 -1.44,-0.792 -2.855,-1.732 -4.32,-2.681 -2.937,-1.891 -5.906,-4.08 -8.893,-6.445 -1.513,-1.16 -2.953,-2.458 -4.464,-3.707 -1.466,-1.303 -2.946,-2.628 -4.409,-3.993 -2.897,-2.757 -5.796,-5.612 -8.563,-8.586 -3.262,-3.442 -6.396,-6.976 -9.444,-10.464 -0.789,-1.957 -1.686,-3.851 -2.694,-5.672 4.182,5.001 8.512,10.226 13.09,15.255 2.695,3.013 5.517,5.905 8.342,8.705 1.426,1.385 2.869,2.731 4.3,4.052 1.476,1.271 2.881,2.591 4.361,3.771 2.92,2.412 5.827,4.645 8.709,6.582 1.437,0.974 2.826,1.938 4.242,2.754 1.406,0.832 2.729,1.703 4.085,2.384 1.343,0.702 2.607,1.424 3.852,2.024 1.255,0.582 2.446,1.133 3.565,1.649 2.252,1.002 4.286,1.712 5.927,2.381 3.375,1.084 5.304,1.703 5.304,1.703 m -65.958,-10.127 c 0.039,0.464 0.083,0.927 0.113,1.398 0.224,4.099 0.451,8.265 0.682,12.483 0.251,4.189 0.537,8.429 0.871,12.697 0.003,0.056 0.007,0.113 0.012,0.17 0.267,3.406 0.566,6.836 0.888,10.273 -0.058,0.605 -0.113,1.211 -0.173,1.818 -1.261,12.878 -2.974,26.143 -4.292,39.438 -0.891,9.035 -1.602,18.088 -1.821,27.015 -0.222,8.921 0.031,17.727 1.098,26.157 0.484,4.221 1.28,8.326 2.178,12.312 0.944,3.977 2.113,7.805 3.469,11.453 2.748,7.286 6.407,13.753 10.485,19.188 4.094,5.435 8.62,9.8 12.924,13.264 4.345,3.424 8.408,6.048 11.869,8 3.47,1.935 6.268,3.336 8.221,4.185 1.939,0.879 2.974,1.35 2.974,1.35 0,0 -1.039,-0.461 -2.987,-1.325 -1.961,-0.831 -4.771,-2.207 -8.261,-4.113 -3.484,-1.923 -7.578,-4.513 -11.965,-7.91 -4.348,-3.436 -8.932,-7.776 -13.097,-13.205 -4.149,-5.427 -7.893,-11.906 -10.726,-19.218 -1.396,-3.661 -2.609,-7.508 -3.595,-11.503 -0.941,-4.004 -1.78,-8.131 -2.303,-12.373 -1.15,-8.472 -1.482,-17.322 -1.34,-26.283 0.139,-8.968 0.774,-18.056 1.585,-27.117 1.306,-14.473 3.066,-28.883 4.214,-42.75 l -0.032,-0.084 c 0.243,-2.94 0.421,-5.857 0.596,-8.742 -0.334,-4.268 -0.695,-8.508 -0.947,-12.697 -0.23,-4.218 -0.613,-8.384 -0.838,-12.483 -0.03,-0.47 0.164,-0.934 0.198,-1.398 m 6.457,-23.383 c -0.012,-0.056 -0.026,-0.112 -0.039,-0.167 1.73,2.453 3.48,4.905 5.29,7.325 5.166,6.933 10.72,13.586 16.511,19.258 5.761,5.701 11.785,10.35 17.303,13.762 5.516,3.427 10.504,5.601 14.041,6.951 1.779,0.652 3.187,1.146 4.16,1.433 0.97,0.305 1.487,0.467 1.487,0.467 0,0 -0.52,-0.152 -1.495,-0.439 -0.98,-0.268 -2.396,-0.737 -4.19,-1.356 -3.567,-1.285 -8.609,-3.369 -14.214,-6.709 -5.605,-3.324 -11.756,-7.888 -17.661,-13.517 -5.937,-5.598 -11.653,-12.194 -16.975,-19.063 -1.225,-1.578 -2.426,-3.17 -3.615,-4.766 -0.185,-1.066 -0.385,-2.127 -0.603,-3.179 m 55.984,95.391 c 0,0 -1.457,-0.583 -4.005,-1.6 -0.634,-0.266 -1.355,-0.514 -2.103,-0.869 -0.735,-0.383 -1.53,-0.794 -2.378,-1.236 -0.85,-0.442 -1.755,-0.911 -2.708,-1.405 -0.922,-0.549 -1.858,-1.186 -2.853,-1.818 -0.975,-0.663 -2.061,-1.256 -3.057,-2.049 -1.004,-0.782 -2.043,-1.59 -3.11,-2.42 -1.1,-0.795 -2.095,-1.768 -3.145,-2.723 -1.028,-0.982 -2.166,-1.896 -3.162,-2.988 -1.014,-1.073 -2.045,-2.166 -3.088,-3.272 -1.044,-1.105 -1.972,-2.335 -2.979,-3.517 -0.496,-0.597 -0.992,-1.195 -1.491,-1.797 l -1.398,-1.888 c -0.92,-1.27 -1.898,-2.51 -2.776,-3.817 -0.874,-1.312 -1.748,-2.623 -2.618,-3.93 -0.879,-1.301 -1.647,-2.662 -2.467,-3.978 -1.655,-2.625 -3.072,-5.327 -4.542,-7.887 -1.36,-2.617 -2.745,-5.117 -3.927,-7.545 -0.564,-1.119 -1.105,-2.201 -1.629,-3.263 -0.002,-0.141 -0.005,-0.285 -0.007,-0.426 -0.014,-1.59 -0.028,-3.164 -0.041,-4.738 0.101,0.224 0.199,0.441 0.301,0.67 0.95,2.146 2.021,4.451 3.167,6.882 1.114,2.448 2.422,4.957 3.705,7.592 1.39,2.574 2.73,5.295 4.301,7.935 0.779,1.324 1.506,2.696 2.342,4.005 0.828,1.316 1.66,2.636 2.491,3.956 0.837,1.32 1.773,2.567 2.65,3.85 l 1.336,1.905 c 0.478,0.608 0.954,1.214 1.428,1.817 0.966,1.192 1.857,2.438 2.86,3.557 1.004,1.121 1.997,2.229 2.973,3.319 0.958,1.109 2.061,2.039 3.053,3.039 1.018,0.973 1.98,1.965 3.049,2.781 1.038,0.85 2.047,1.679 3.024,2.48 0.968,0.813 2.029,1.428 2.982,2.112 0.972,0.654 1.886,1.311 2.791,1.882 0.935,0.516 1.823,1.007 2.657,1.468 0.836,0.461 1.617,0.894 2.34,1.292 0.736,0.373 1.449,0.641 2.073,0.92 2.52,1.085 3.961,1.704 3.961,1.704 m -50.277,-66.459 c 1.201,2.241 2.53,4.564 3.908,6.968 1.424,2.373 2.87,4.844 4.48,7.262 1.535,2.471 3.291,4.843 4.987,7.262 1.815,2.322 3.57,4.701 5.522,6.855 1.845,2.25 3.917,4.223 5.835,6.219 1.029,0.926 2.041,1.836 3.031,2.724 0.498,0.444 0.989,0.885 1.476,1.317 0.516,0.397 1.026,0.789 1.53,1.175 1.007,0.774 1.986,1.526 2.934,2.254 0.984,0.677 1.967,1.284 2.895,1.891 0.942,0.586 1.803,1.219 2.696,1.691 0.894,0.475 1.743,0.923 2.539,1.346 0.797,0.422 1.544,0.819 2.234,1.184 0.719,0.305 1.38,0.584 1.976,0.838 2.392,1.004 3.76,1.578 3.76,1.578 0,0 -1.383,-0.536 -3.803,-1.476 -0.606,-0.237 -1.275,-0.499 -2.004,-0.784 -0.702,-0.349 -1.46,-0.725 -2.271,-1.127 -0.811,-0.402 -1.676,-0.83 -2.586,-1.281 -0.911,-0.45 -1.792,-1.061 -2.756,-1.623 -0.947,-0.588 -1.955,-1.17 -2.964,-1.824 -0.974,-0.707 -1.981,-1.438 -3.017,-2.188 -0.518,-0.377 -1.043,-0.759 -1.574,-1.144 -0.502,-0.422 -1.01,-0.85 -1.524,-1.285 -1.023,-0.871 -2.069,-1.76 -3.133,-2.667 -1.989,-1.957 -4.139,-3.896 -6.062,-6.117 -2.033,-2.121 -3.867,-4.472 -5.768,-6.77 -1.776,-2.392 -3.617,-4.744 -5.233,-7.192 -1.693,-2.399 -3.218,-4.847 -4.72,-7.202 -1.455,-2.383 -2.858,-4.689 -4.129,-6.908 -0.517,-0.91 -1.016,-1.783 -1.507,-2.649 -0.009,-0.943 -0.018,-1.894 -0.025,-2.832 -0.011,-0.597 -0.03,-1.191 -0.046,-1.785 0.998,1.969 2.129,4.068 3.319,6.29 m -3.646,-13.337 c -0.067,-0.976 -0.145,-1.948 -0.231,-2.916 0.664,1.093 1.318,2.188 1.996,3.274 4.877,7.853 10.158,15.463 15.8,22.037 5.629,6.58 11.638,12.069 17.299,16.072 2.825,2.012 5.548,3.66 8.023,5.008 2.478,1.346 4.722,2.356 6.589,3.144 1.873,0.766 3.365,1.329 4.398,1.661 1.027,0.349 1.576,0.535 1.576,0.535 0,0 -0.552,-0.176 -1.586,-0.506 -1.039,-0.316 -2.541,-0.853 -4.431,-1.586 -1.882,-0.756 -4.149,-1.73 -6.658,-3.035 -2.506,-1.31 -5.269,-2.916 -8.142,-4.889 -5.76,-3.922 -11.904,-9.34 -17.687,-15.863 -5.795,-6.517 -11.244,-14.082 -16.278,-21.881 -0.227,-0.351 -0.442,-0.703 -0.668,-1.055 m -86.234,-66.422 c -29.231,-4.652 -38.1,-31.801 -38.1,-31.801 0,0 3.623,-8.598 21.741,-4.358 4.996,9.747 28.185,38.041 16.359,36.159 m -67.111,59.368 c -0.27,3.244 -0.876,6.269 -1.684,8.986 -0.788,2.721 -1.836,5.116 -2.937,7.139 -1.122,2.014 -2.368,3.615 -3.512,4.801 -1.149,1.189 -2.211,1.945 -2.979,2.37 -0.382,0.213 -0.678,0.366 -0.886,0.454 -0.203,0.095 -0.309,0.143 -0.309,0.143 0,0 0.096,-0.065 0.283,-0.188 0.191,-0.118 0.459,-0.313 0.799,-0.578 0.67,-0.538 1.603,-1.391 2.577,-2.648 1.953,-2.509 3.905,-6.69 5.123,-11.979 0.607,-2.645 1.021,-5.566 1.193,-8.658 0.125,-3.088 0.039,-6.372 -0.608,-9.625 -0.327,-1.623 -0.808,-3.23 -1.484,-4.727 -0.678,-1.49 -1.604,-2.868 -2.826,-3.809 -0.608,-0.472 -1.287,-0.821 -2.013,-1.052 -0.368,-0.12 -0.744,-0.192 -1.082,-0.246 l -1.36,-0.105 c -1.984,-0.142 -3.874,-0.592 -5.688,-1.175 -3.623,-1.188 -7.027,-2.799 -10.244,-4.578 -0.266,-0.147 -0.514,-0.306 -0.778,-0.454 -0.173,0.027 -0.344,0.053 -0.518,0.081 -0.81,0.118 -1.651,0.169 -2.506,0.261 -0.857,0.056 -1.736,0.073 -2.629,0.112 -1.786,-0.004 -3.634,-0.062 -5.502,-0.25 -1.867,-0.183 -3.759,-0.436 -5.631,-0.801 -7.512,-1.38 -14.71,-4.05 -19.939,-6.347 -5.24,-2.301 -8.556,-4.247 -8.556,-4.247 l 0.664,-1.117 c 0,0 0.79,0.487 2.239,1.284 1.444,0.794 3.537,1.885 6.104,3.082 5.128,2.383 12.204,5.183 19.615,6.709 1.846,0.401 3.714,0.692 5.56,0.913 1.846,0.225 3.674,0.322 5.446,0.364 0.885,-0.021 1.756,-0.019 2.608,-0.058 0.848,-0.071 1.684,-0.103 2.489,-0.203 0.051,-0.007 0.1,-0.013 0.149,-0.019 -0.474,-0.269 -0.938,-0.545 -1.405,-0.821 -2.273,-1.334 -4.492,-2.702 -6.594,-4.104 -2.147,-1.452 -4.205,-2.912 -6.162,-4.362 -0.285,0.099 -0.574,0.192 -0.867,0.291 -0.439,0.149 -0.88,0.3 -1.337,0.438 -1.205,0.26 -2.443,0.585 -3.72,0.814 -1.29,0.121 -2.595,0.381 -3.918,0.392 -1.32,0.018 -2.646,0.091 -3.942,-0.063 -0.649,-0.06 -1.299,-0.079 -1.931,-0.173 -0.63,-0.107 -1.253,-0.21 -1.866,-0.313 -1.228,-0.198 -2.383,-0.549 -3.486,-0.834 -1.081,-0.365 -2.119,-0.672 -3.032,-1.076 -0.933,-0.355 -1.754,-0.762 -2.486,-1.114 -0.725,-0.369 -1.348,-0.708 -1.851,-1.009 -0.501,-0.301 -0.895,-0.548 -1.163,-0.735 -0.259,-0.181 -0.396,-0.277 -0.396,-0.277 l 0.781,-1.037 c 0,0 0.128,0.095 0.368,0.274 0.229,0.172 0.59,0.414 1.062,0.717 0.47,0.301 1.059,0.647 1.744,1.025 0.695,0.358 1.475,0.775 2.367,1.146 0.872,0.421 1.868,0.747 2.907,1.135 1.061,0.308 2.175,0.688 3.363,0.917 0.594,0.117 1.198,0.238 1.81,0.359 0.613,0.114 1.245,0.149 1.876,0.227 1.264,0.191 2.561,0.157 3.856,0.182 1.298,0.033 2.584,-0.187 3.861,-0.265 1.262,-0.186 2.492,-0.469 3.693,-0.689 0.352,-0.095 0.69,-0.201 1.032,-0.303 0.316,-0.096 0.632,-0.185 0.939,-0.28 -2.382,-1.773 -4.607,-3.525 -6.653,-5.218 -0.55,0.238 -1.111,0.484 -1.681,0.729 -0.311,0.133 -0.619,0.269 -0.938,0.39 -1.004,0.287 -1.999,0.693 -3.048,0.889 -1.044,0.208 -2.086,0.454 -3.138,0.514 -1.046,0.142 -2.081,0.148 -3.086,0.144 -1.003,0.004 -1.97,-0.108 -2.887,-0.193 -0.91,-0.142 -1.776,-0.251 -2.558,-0.451 -1.578,-0.334 -2.852,-0.785 -3.736,-1.122 -0.44,-0.173 -0.787,-0.319 -1.028,-0.436 -0.23,-0.109 -0.352,-0.167 -0.352,-0.167 l 0.607,-1.149 c 0,0 0.113,0.06 0.324,0.171 0.2,0.107 0.513,0.253 0.925,0.434 0.82,0.348 2.019,0.828 3.519,1.206 0.743,0.22 1.57,0.355 2.441,0.527 0.878,0.115 1.808,0.262 2.777,0.294 0.969,0.039 1.972,0.073 2.99,-0.025 1.024,-0.018 2.043,-0.22 3.07,-0.382 1.029,-0.151 2.012,-0.512 3.009,-0.753 0.203,-0.068 0.397,-0.149 0.597,-0.222 0.619,-0.229 1.227,-0.468 1.824,-0.702 -0.553,-0.46 -1.093,-0.917 -1.618,-1.368 -2.812,-2.399 -5.229,-4.608 -7.19,-6.522 -10e-4,0 -10e-4,0 -0.002,0.002 -1.345,-0.575 -2.555,-0.929 -3.559,-0.953 -2.369,-0.055 -4.11,0.142 -5.409,0.49 -3.68,0.986 -3.733,3.205 -3.893,4.484 -0.176,1.407 -1.974,1.902 -2.649,2.043 -0.156,0.029 -0.27,0.047 -0.27,0.047 l -1.624,-1.448 c 0,0 0.995,-0.791 1.212,-1.561 0.001,-10e-4 0.003,-10e-4 0.005,-0.003 0.952,-0.44 1.829,-0.897 2.62,-1.395 3.721,-2.344 5.646,-4.995 5.646,-4.995 0,0 2.592,-10.91 -0.26,-18.753 2.491,1.313 9.123,2.427 19.332,5.948 15.676,5.407 19.207,15.283 21.091,22.714 1.735,6.843 0.833,10.554 0.46,11.651 -0.079,0.233 -0.135,0.354 -0.135,0.354 -0.326,1.262 -1.487,1.364 -3.217,0.696 0.102,-0.837 0.191,-1.663 0.245,-2.462 1.872,-27.476 -23.895,-32.495 -30.775,-33.764 1.894,7.876 2.343,12.406 1.916,14.942 -0.102,0.601 -0.251,1.094 -0.444,1.489 2.062,1.816 4.597,3.923 7.553,6.191 0.691,0.528 1.411,1.071 2.142,1.617 0.591,-0.306 1.169,-0.615 1.725,-0.902 0.805,-0.406 1.465,-0.955 2.131,-1.375 0.648,-0.446 1.265,-0.825 1.733,-1.265 0.489,-0.415 0.915,-0.776 1.266,-1.072 0.703,-0.596 1.105,-0.935 1.105,-0.935 0,0 -0.388,0.354 -1.068,0.976 -0.34,0.311 -0.753,0.69 -1.227,1.123 -0.453,0.459 -1.057,0.865 -1.692,1.338 -0.651,0.447 -1.298,1.026 -2.093,1.469 -0.5,0.281 -1.019,0.586 -1.55,0.89 2.273,1.694 4.728,3.465 7.349,5.25 0.898,-0.306 1.708,-0.723 2.492,-1.032 0.897,-0.393 1.742,-0.71 2.419,-1.134 0.696,-0.388 1.302,-0.727 1.802,-1.005 1,-0.558 1.571,-0.877 1.571,-0.877 0,0 -0.561,0.337 -1.543,0.924 -0.492,0.296 -1.089,0.654 -1.773,1.064 -0.667,0.446 -1.503,0.791 -2.392,1.213 -0.722,0.309 -1.466,0.718 -2.284,1.046 1.718,1.166 3.497,2.335 5.347,3.489 1.914,1.204 3.915,2.376 5.954,3.519 1.067,0.598 2.129,1.203 3.229,1.77 0.385,0.199 0.78,0.389 1.17,0.582 0.343,-0.069 0.701,-0.139 1.029,-0.217 0.683,-0.191 1.338,-0.376 1.96,-0.552 0.616,-0.194 1.186,-0.426 1.729,-0.619 1.095,-0.373 1.973,-0.877 2.737,-1.201 1.453,-0.799 2.27,-1.283 2.27,-1.283 0,0 -0.806,0.501 -2.244,1.332 -0.757,0.342 -1.629,0.866 -2.718,1.263 -0.541,0.205 -1.109,0.451 -1.724,0.66 -0.622,0.189 -1.276,0.39 -1.959,0.598 -0.244,0.062 -0.512,0.119 -0.763,0.176 2.74,1.353 5.569,2.578 8.464,3.481 1.709,0.521 3.452,0.893 5.142,0.986 l 1.392,0.071 c 0.574,0.055 1.102,0.148 1.612,0.29 1.032,0.287 1.999,0.792 2.836,1.422 1.687,1.276 2.825,2.994 3.641,4.723 0.83,1.738 1.313,3.547 1.656,5.321 0.672,3.559 0.711,7.032 0.433,10.274 m -78.528,-70.631 c 0.125,-0.345 0.252,-0.658 0.344,-0.943 0.072,-0.29 0.135,-0.542 0.187,-0.75 0.023,-0.429 0.036,-0.674 0.036,-0.674 0,0 0.007,0.248 0.019,0.68 -0.035,0.216 -0.077,0.476 -0.126,0.775 -0.069,0.295 -0.171,0.62 -0.269,0.981 -0.233,0.707 -0.548,1.519 -0.924,2.369 -0.381,0.848 -0.81,1.743 -1.264,2.624 -0.591,1.151 -1.214,2.281 -1.785,3.285 3.342,1.158 6.29,2.647 8.156,4.377 0.304,-1.02 0.609,-2.202 0.858,-3.403 0.352,-1.676 0.571,-3.382 0.603,-4.671 0.003,-0.642 0.011,-1.182 -0.031,-1.556 -0.029,-0.377 -0.045,-0.592 -0.045,-0.592 0,0 0.036,0.213 0.1,0.585 0.077,0.372 0.121,0.912 0.178,1.56 0.09,1.3 0.032,3.044 -0.164,4.776 -0.165,1.493 -0.416,2.958 -0.676,4.16 0.641,0.773 1.066,1.589 1.211,2.439 1.135,6.652 -12.817,6.977 -20.227,4.218 -7.409,-2.758 -13.74,-14.595 -7.409,-14.428 1.615,-0.185 3.572,-0.171 5.688,0.018 0.012,-0.027 0.022,-0.052 0.034,-0.078 0.223,-0.493 0.485,-1.02 0.76,-1.576 0.305,-0.541 0.586,-1.132 0.951,-1.704 0.688,-1.165 1.511,-2.36 2.448,-3.458 0.439,-0.574 0.992,-1.052 1.473,-1.573 0.533,-0.469 1.071,-0.921 1.608,-1.328 0.581,-0.349 1.102,-0.75 1.664,-1.012 0.572,-0.24 1.087,-0.523 1.6,-0.68 0.521,-0.137 0.997,-0.261 1.42,-0.372 0.424,-0.097 0.811,-0.083 1.119,-0.122 0.621,-0.049 0.975,-0.079 0.975,-0.079 0,0 -0.352,0.048 -0.969,0.134 -0.305,0.056 -0.686,0.064 -1.099,0.184 -0.41,0.133 -0.872,0.282 -1.375,0.446 -0.495,0.182 -0.986,0.491 -1.526,0.753 -0.532,0.284 -1.019,0.708 -1.561,1.074 -0.498,0.427 -0.994,0.895 -1.483,1.376 -0.439,0.534 -0.944,1.022 -1.34,1.604 -0.847,1.115 -1.576,2.318 -2.179,3.486 -0.322,0.571 -0.562,1.163 -0.827,1.702 -0.202,0.475 -0.385,0.913 -0.555,1.34 3.138,0.361 6.543,1.078 9.678,2.085 0.681,-0.991 1.437,-2.125 2.162,-3.289 0.52,-0.833 1.015,-1.682 1.461,-2.486 0.44,-0.809 0.814,-1.58 1.101,-2.257 m -14.308,31.853 c -0.215,0.097 -0.453,0.204 -0.685,0.309 -0.133,0 -0.263,-0.004 -0.4,0.004 0.381,-0.167 0.745,-0.159 1.085,-0.313 m 18.399,3.534 0.849,-0.982 c 0,0 0.697,0.621 1.99,1.667 1.287,1.044 3.164,2.498 5.493,4.136 4.645,3.281 11.166,7.29 18.252,10.055 1.776,0.666 3.569,1.299 5.375,1.778 1.797,0.517 3.606,0.867 5.364,1.13 1.762,0.262 3.482,0.353 5.114,0.367 0.815,-0.038 1.608,-0.074 2.376,-0.11 0.761,-0.101 1.497,-0.198 2.203,-0.291 1.397,-0.284 2.674,-0.578 3.764,-0.978 0.276,-0.09 0.543,-0.176 0.801,-0.26 0.248,-0.108 0.488,-0.214 0.717,-0.314 0.46,-0.201 0.883,-0.387 1.265,-0.554 0.744,-0.374 1.302,-0.722 1.696,-0.933 0.39,-0.22 0.598,-0.337 0.598,-0.337 0,0 -0.206,0.122 -0.591,0.35 -0.388,0.219 -0.94,0.579 -1.677,0.971 -0.38,0.175 -0.8,0.369 -1.257,0.58 -0.229,0.106 -0.467,0.217 -0.714,0.331 -0.257,0.09 -0.523,0.184 -0.798,0.279 -1.088,0.426 -2.365,0.75 -3.767,1.065 -0.71,0.109 -1.45,0.221 -2.215,0.34 -0.774,0.052 -1.573,0.107 -2.395,0.163 -1.647,0.021 -3.388,-0.035 -5.173,-0.261 -1.783,-0.229 -3.62,-0.544 -5.444,-1.029 -1.837,-0.443 -3.66,-1.046 -5.47,-1.68 -7.218,-2.642 -13.884,-6.545 -18.644,-9.76 -4.778,-3.208 -7.712,-5.723 -7.712,-5.723 m 10.861,24.548 c -0.486,-20.118 17.564,-6.3 28.23,6.328 14.116,16.71 2.931,30.039 -10.058,28.069 -18.18,-2.758 -17.912,-23.66 -18.172,-34.397 m 31.653,55.292 c 0.103,-1.044 0.486,-2.016 0.959,-2.913 0.484,-0.902 1.05,-1.719 1.766,-2.488 l 0.246,-0.265 0.35,0.129 c 0.843,0.312 1.388,0.874 1.881,1.427 0.487,0.563 0.892,1.168 1.249,1.791 0.717,1.248 1.278,2.555 1.746,3.891 0.901,2.68 1.462,5.478 1.542,8.311 0.094,2.821 -0.316,5.72 -1.533,8.31 -0.602,1.291 -1.444,2.48 -2.505,3.424 -1.05,0.949 -2.292,1.665 -3.607,2.103 1.241,-0.619 2.375,-1.42 3.292,-2.422 0.911,-1.004 1.606,-2.175 2.117,-3.415 1.013,-2.502 1.197,-5.259 1.062,-7.948 -0.18,-2.697 -0.705,-5.386 -1.591,-7.942 -0.434,-1.28 -0.958,-2.531 -1.61,-3.692 -0.328,-0.577 -0.685,-1.135 -1.087,-1.634 -0.308,-0.38 -0.661,-0.732 -1.022,-0.959 -0.218,0.235 -0.433,0.483 -0.637,0.733 -0.296,0.363 -0.573,0.74 -0.823,1.133 -0.496,0.783 -0.905,1.632 -1.062,2.527 -0.15,0.883 -0.073,1.82 0.393,2.629 0.451,0.812 1.199,1.463 2.004,2.008 -0.44,-0.206 -0.889,-0.42 -1.286,-0.721 -0.408,-0.287 -0.766,-0.649 -1.075,-1.058 -0.31,-0.408 -0.538,-0.889 -0.668,-1.397 -0.136,-0.508 -0.149,-1.043 -0.101,-1.562 m 314.249,50.814 c -16.061,-12.848 -34.068,-19.513 -42.761,-22.209 -3.299,-1.023 -5.263,-1.478 -5.263,-1.478 0,0 30.501,31.32 14.926,48.025 -3.196,3.427 -6.118,5.265 -8.791,5.81 -20.097,4.1 -25.98,-65.865 -26.253,-98.613 -0.325,-38.712 -8.437,-76.578 -49.971,-105.961 -10.252,-7.253 -19.435,-10.257 -27.455,-10.675 -7.223,-0.377 -13.503,1.345 -18.765,3.963 1.194,2.237 2.342,4.688 3.421,7.328 0.612,-0.602 1.26,-1.17 1.914,-1.72 l 1.976,-1.392 c 0.693,-0.397 1.403,-0.763 2.095,-1.138 0.678,-0.408 1.436,-0.629 2.138,-0.938 0.71,-0.298 1.415,-0.58 2.139,-0.765 0.713,-0.207 1.415,-0.426 2.102,-0.626 0.699,-0.141 1.383,-0.306 2.049,-0.44 1.323,-0.317 2.61,-0.438 3.777,-0.611 1.17,-0.158 2.256,-0.445 3.211,-0.521 0.953,-0.079 1.789,-0.449 2.476,-0.449 h 2.157 c 0,0 -0.784,0.432 -2.153,0.502 -0.685,0.039 -1.517,0.355 -2.464,0.481 -0.946,0.126 -2.022,0.228 -3.174,0.444 -1.149,0.233 -2.414,0.388 -3.702,0.769 -0.646,0.166 -1.311,0.349 -1.991,0.523 -0.661,0.232 -1.336,0.473 -2.022,0.712 -0.696,0.216 -1.366,0.523 -2.037,0.848 -0.663,0.334 -1.385,0.578 -2.012,1.006 -0.645,0.396 -1.305,0.776 -1.943,1.187 l -1.797,1.411 c -0.752,0.705 -1.487,1.426 -2.142,2.207 0.42,1.083 0.827,2.197 1.221,3.343 0.886,-0.489 1.819,-0.919 2.796,-1.266 4.295,-1.553 9.123,-1.719 13.789,-1.418 4.681,0.364 9.283,1.213 13.523,2.251 4.244,1.029 8.141,2.206 11.453,3.285 3.317,1.071 6.042,2.07 7.952,2.761 1.902,0.713 2.989,1.12 2.989,1.12 0,0 -1.101,-0.368 -3.026,-1.015 -1.932,-0.623 -4.688,-1.525 -8.033,-2.479 -3.342,-0.96 -7.265,-1.997 -11.515,-2.871 -4.243,-0.882 -8.827,-1.558 -13.414,-1.756 -4.566,-0.139 -9.213,0.213 -13.093,1.782 -1.006,0.399 -1.95,0.883 -2.819,1.429 0.405,1.253 0.791,2.538 1.159,3.857 0.88,-0.165 1.777,-0.291 2.691,-0.339 2.579,-0.134 5.256,0.141 7.955,0.629 2.705,0.48 5.418,1.251 8.146,2.085 2.727,0.839 5.436,1.85 8.137,2.868 10.748,4.212 21.134,9.166 28.987,12.737 7.834,3.613 13.094,5.939 13.094,5.939 0,0 -5.324,-2.176 -13.26,-5.566 -7.946,-3.349 -18.48,-8.011 -29.272,-11.893 -2.708,-0.936 -5.419,-1.859 -8.126,-2.609 -2.706,-0.745 -5.385,-1.424 -8.005,-1.812 -2.613,-0.397 -5.161,-0.579 -7.517,-0.389 -0.797,0.065 -1.561,0.19 -2.304,0.346 0.345,1.345 0.666,2.724 0.968,4.133 1.988,0.221 4.014,0.735 6.048,1.407 2.672,0.89 5.398,2.019 8.125,3.338 5.465,2.618 11.057,5.79 16.628,8.97 5.568,3.186 11.119,6.388 16.384,9.281 5.261,2.898 10.238,5.479 14.563,7.577 4.314,2.118 7.984,3.728 10.56,4.838 2.592,1.073 4.073,1.688 4.073,1.688 0,0 -1.497,-0.577 -4.115,-1.585 -2.604,-1.044 -6.317,-2.563 -10.691,-4.574 -4.382,-1.991 -9.434,-4.451 -14.777,-7.219 -5.345,-2.762 -10.984,-5.83 -16.626,-8.872 -5.644,-3.036 -11.297,-6.052 -16.743,-8.492 -2.716,-1.231 -5.4,-2.26 -7.976,-3.048 -1.715,-0.52 -3.389,-0.897 -4.987,-1.091 0.257,1.337 0.493,2.7 0.706,4.087 2.472,0.959 4.977,2.253 7.478,3.798 2.613,1.619 5.285,3.424 7.98,5.37 5.398,3.879 10.991,8.192 16.696,12.345 2.854,2.072 5.715,4.135 8.59,6.081 2.859,1.967 5.725,3.825 8.53,5.575 2.808,1.744 5.565,3.361 8.218,4.825 2.659,1.453 5.194,2.794 7.586,3.925 2.366,1.189 4.61,2.114 6.57,3 1.999,0.795 3.741,1.49 5.177,2.062 2.912,1.031 4.577,1.621 4.577,1.621 0,0 -1.678,-0.552 -4.615,-1.517 -1.451,-0.54 -3.209,-1.195 -5.229,-1.945 -1.982,-0.842 -4.255,-1.716 -6.652,-2.854 -2.425,-1.079 -4.996,-2.366 -7.698,-3.761 -2.696,-1.411 -5.5,-2.967 -8.36,-4.653 -2.854,-1.691 -5.775,-3.491 -8.69,-5.4 -2.93,-1.887 -5.848,-3.891 -8.758,-5.901 -5.813,-4.032 -11.513,-8.222 -16.961,-11.949 -2.719,-1.871 -5.395,-3.591 -7.98,-5.11 -2.09,-1.226 -4.145,-2.252 -6.125,-3.048 0.158,1.193 0.297,2.404 0.42,3.631 2.341,1.446 4.662,3.223 6.993,5.205 2.489,2.091 4.997,4.408 7.553,6.828 5.112,4.842 10.448,10.089 15.991,15.11 2.773,2.509 5.589,4.969 8.435,7.3 1.426,1.16 2.836,2.321 4.275,3.404 0.715,0.551 1.426,1.097 2.13,1.64 0.722,0.521 1.437,1.039 2.146,1.552 1.407,1.045 2.837,2.006 4.239,2.942 1.385,0.966 2.795,1.822 4.16,2.671 1.351,0.87 2.715,1.633 4.032,2.378 0.657,0.374 1.303,0.74 1.937,1.101 0.649,0.332 1.286,0.659 1.91,0.98 2.475,1.325 4.836,2.348 6.909,3.3 2.104,0.882 3.959,1.603 5.485,2.2 3.103,1.055 4.877,1.659 4.877,1.659 0,0 -1.787,-0.566 -4.916,-1.553 -1.537,-0.565 -3.411,-1.246 -5.538,-2.084 -2.097,-0.908 -4.489,-1.884 -6.999,-3.16 -0.633,-0.308 -1.28,-0.623 -1.939,-0.942 -0.644,-0.347 -1.301,-0.703 -1.969,-1.062 -1.338,-0.72 -2.724,-1.457 -4.099,-2.302 -1.389,-0.821 -2.825,-1.651 -4.238,-2.591 -1.428,-0.911 -2.887,-1.846 -4.324,-2.865 -0.724,-0.501 -1.455,-1.006 -2.191,-1.515 -0.72,-0.53 -1.445,-1.063 -2.176,-1.601 -1.473,-1.059 -2.912,-2.194 -4.373,-3.329 -2.912,-2.282 -5.794,-4.692 -8.634,-7.15 -5.675,-4.922 -11.143,-10.071 -16.335,-14.78 -2.597,-2.356 -5.132,-4.595 -7.617,-6.594 -1.849,-1.504 -3.673,-2.876 -5.465,-4.034 0.075,0.983 0.121,1.99 0.172,2.992 1.635,1.374 3.257,2.897 4.878,4.551 -1.562,-1.093 -3.169,-2.026 -4.783,-2.8 -0.908,-0.435 -1.816,-0.837 -2.714,-1.179 -0.006,-0.002 -0.012,-0.003 -0.019,-0.006 -2.246,-38.718 -22.229,-62.012 -29.486,-57.161 -3.395,2.269 -22.102,-1.613 -25.634,-14.927 -2.109,-7.949 -0.162,-15.575 -2.434,-22.552 -0.351,-0.788 -0.659,-1.106 -0.97,-1.171 -0.141,-0.027 -0.282,-0.007 -0.428,0.054 -0.722,0.301 -1.552,1.478 -2.982,1.279 -1.017,-0.14 0.455,2.03 -6.683,-7.705 -1.005,-1.368 -4.386,-3.432 -7.215,-3.122 -0.225,0.026 -0.446,0.067 -0.663,0.123 -0.269,0.072 -0.53,0.169 -0.782,0.293 -0.061,0.093 -0.119,0.191 -0.172,0.292 -0.104,0.172 -0.202,0.354 -0.243,0.562 -0.146,0.392 -0.17,0.835 -0.178,1.273 l 0.057,0.667 0.155,0.654 c 0.124,0.427 0.285,0.848 0.482,1.231 0.379,0.779 0.882,1.434 1.355,1.95 0.221,0.276 0.483,0.471 0.69,0.668 0.205,0.202 0.41,0.348 0.58,0.464 0.338,0.241 0.529,0.378 0.529,0.378 0,0 -0.203,-0.12 -0.561,-0.33 -0.181,-0.104 -0.399,-0.233 -0.624,-0.418 -0.223,-0.182 -0.508,-0.358 -0.756,-0.618 -0.528,-0.486 -1.104,-1.112 -1.573,-1.895 -0.241,-0.385 -0.45,-0.815 -0.623,-1.265 l -0.23,-0.7 -0.129,-0.739 c -0.029,-0.408 -0.024,-0.826 0.045,-1.239 -0.08,0.089 -0.162,0.164 -0.237,0.262 -2.136,-0.946 -1.234,-2.385 -6.343,-2.954 -0.243,-0.005 -0.438,0.005 -0.646,0.012 -1.071,0.035 -1.746,0.232 -2.13,0.531 -1.037,0.806 -0.134,2.291 -0.16,3.026 0.007,0.013 0.012,0.028 0.018,0.042 0.343,0.759 0.754,1.558 1.31,2.208 0.288,0.329 0.587,0.566 0.977,0.761 0.392,0.193 0.82,0.452 1.164,0.712 0.711,0.526 1.275,1.117 1.735,1.633 0.911,1.046 1.381,1.838 1.381,1.838 0,0 -0.546,-0.744 -1.54,-1.684 -0.499,-0.464 -1.105,-0.985 -1.826,-1.414 -0.365,-0.223 -0.718,-0.395 -1.152,-0.559 -0.439,-0.169 -0.895,-0.47 -1.238,-0.81 -0.698,-0.693 -1.199,-1.509 -1.629,-2.277 -0.342,-0.626 -0.619,-1.217 -0.864,-1.764 -0.684,-0.498 -1.568,-0.687 -2.423,-0.632 -1.468,0.098 -2.82,0.898 -2.794,2.028 -0.045,0.004 -0.079,0.018 -0.117,0.028 0.018,0.046 0.033,0.087 0.051,0.135 0.26,0.66 0.586,1.422 1.026,2.173 0.441,0.733 1.011,1.514 1.79,1.841 0.358,0.138 0.917,0.181 1.366,0.33 0.488,0.141 0.937,0.33 1.345,0.562 0.821,0.464 1.446,1.1 1.863,1.706 0.422,0.608 0.655,1.18 0.786,1.583 0.132,0.405 0.166,0.647 0.166,0.647 0,0 -0.053,-0.239 -0.215,-0.629 -0.162,-0.388 -0.437,-0.932 -0.891,-1.486 -0.451,-0.552 -1.094,-1.104 -1.89,-1.474 -0.396,-0.186 -0.831,-0.326 -1.268,-0.418 -0.466,-0.115 -0.895,-0.087 -1.464,-0.234 -1.071,-0.354 -1.761,-1.204 -2.315,-1.953 -0.108,-0.152 -0.188,-0.299 -0.285,-0.448 0.046,0.266 0.011,0.434 -0.223,0.39 -0.298,-0.054 -0.572,-0.104 -0.824,-0.155 -1.76,-0.345 -2.465,-0.689 -3.004,-2.652 -0.522,0.959 -1.027,1.929 0.696,4.406 0.379,4.003 3.866,3.364 5.084,4.653 7.483,7.916 7.189,16.554 10.815,21.578 4.219,5.841 3.344,11.048 3.344,11.048 0,0 -22.488,-1.639 -33.943,8.746 0.301,0.154 0.594,0.336 0.887,0.512 13.311,8.048 20.673,39.539 52.102,40.048 -20.118,3.451 -35.53,-12.006 -44.292,-25.634 -8.761,-13.628 -19.09,-17.306 -41.155,-12.547 -22.065,4.757 -31.15,1.946 -37.64,0 0,0 -12.223,-4.544 -15.035,-4.653 -0.385,-0.014 -0.737,0.017 -1.068,0.073 -0.585,0.099 -1.09,0.284 -1.507,0.508 -0.803,0.43 -1.289,0.97 -1.49,1.221 1.078,0.5 2.148,0.999 3.16,1.468 1.229,0.593 2.433,0.988 3.439,1.408 2.03,0.799 3.383,1.331 3.383,1.331 0,0 -1.381,-0.457 -3.45,-1.14 -1.028,-0.364 -2.268,-0.696 -3.528,-1.219 -1.267,-0.504 -2.619,-1.043 -3.971,-1.582 -0.173,-0.067 -0.343,-0.137 -0.515,-0.205 -1.459,-0.051 -3.832,-0.004 -5.89,0.598 -1.371,0.401 -2.585,1.059 -3.299,2.099 -0.106,0.152 -0.217,0.301 -0.298,0.472 -0.057,0.119 -0.173,0.217 -0.319,0.306 0.91,0.445 1.835,0.895 2.792,1.326 1.317,0.613 2.634,1.223 3.868,1.796 1.229,0.593 2.434,0.988 3.439,1.407 2.03,0.798 3.383,1.329 3.383,1.329 0,0 -1.38,-0.46 -3.45,-1.144 -1.027,-0.363 -2.268,-0.706 -3.527,-1.229 -1.268,-0.504 -2.619,-1.061 -3.972,-1.6 -1.287,-0.494 -2.538,-1.057 -3.732,-1.566 -0.751,0.145 -1.665,0.161 -2.496,0.279 -1.036,0.146 -1.94,-0.052 -2.233,0.343 -0.303,0.41 -0.53,0.705 -0.722,0.705 H 157.7 c -5.26,0 -14.934,1.248 -17.526,3.103 -0.168,0.121 -9.858,11.474 5.759,6.668 2.11,-0.649 3.133,-4.82 5.48,-2.104 4.39,5.083 -10.968,6.52 -2.234,12.091 4.6,-6.339 14.547,-8.083 20.247,-8.565 2.271,-0.192 3.861,-0.175 4.177,-0.172 l 0.069,0.049 c 0,0 -1.696,0.007 -4.239,0.221 1.115,0.231 2.156,0.871 3.129,0.871 -10.557,0 -19.34,4.361 -24.081,9.654 -2.087,2.332 -3.339,4.82 -3.653,7.331 0.314,-2.532 1.664,-5.08 3.751,-7.412 -2.272,-3.894 -5.917,-3.083 -10.136,1.784 -2.347,2.709 1.022,5.365 6.022,7.192 v -0.007 c 0,1.189 0.427,2.355 0.955,3.491 3.375,7.263 9.656,10.416 13.99,11.715 -5.604,2.595 -2.617,4.564 -2.617,4.564 0.026,0.462 0.094,1.925 0.106,1.925 -0.815,0 -1.673,0.2 -2.607,0.202 -0.941,-0.06 -1.929,0.092 -2.951,-0.047 -1.024,-0.127 -2.077,-0.259 -3.135,-0.504 -1.072,-0.181 -2.127,-0.496 -3.188,-0.798 -1.075,-0.264 -2.08,-0.735 -3.11,-1.085 -1.016,-0.391 -1.962,-0.899 -2.91,-1.325 -0.933,-0.454 -1.774,-1.009 -2.606,-1.474 -0.846,-0.447 -1.54,-1.03 -2.231,-1.497 -0.667,-0.497 -1.33,-0.891 -1.823,-1.359 -0.514,-0.441 -0.963,-0.826 -1.331,-1.143 -0.74,-0.635 -1.162,-0.997 -1.162,-0.997 0,0 0.408,0.377 1.124,1.039 0.358,0.332 0.794,0.732 1.293,1.194 0.478,0.486 1.127,0.904 1.778,1.43 0.676,0.493 1.357,1.104 2.19,1.587 0.82,0.498 1.65,1.09 2.576,1.583 0.94,0.464 1.882,1.014 2.897,1.447 1.03,0.395 2.038,0.91 3.12,1.218 1.068,0.347 2.136,0.706 3.222,0.93 1.072,0.29 2.148,0.465 3.192,0.633 1.042,0.179 2.065,0.241 3.029,0.337 0.206,0.008 0.397,0.015 0.598,0.023 0.747,0.034 1.468,0.066 2.137,0.042 0.176,0 0.335,-0.018 0.504,-0.021 0.155,-0.117 0.324,-0.265 0.463,-0.373 0.42,-0.329 0.733,-0.618 0.985,-0.836 0.035,-0.004 0.078,-0.005 0.112,-0.009 -0.262,0.221 -0.62,0.516 -1.097,0.889 -0.139,0.107 -0.308,0.233 -0.463,0.351 -0.169,0.003 -0.328,0.01 -0.504,0.01 -0.669,0.025 -1.39,-0.013 -2.137,-0.047 -0.519,0.17 -1.059,0.334 -1.614,0.513 -1.099,0.288 -2.262,0.611 -3.486,0.823 -1.227,0.208 -2.495,0.435 -3.803,0.498 -1.302,0.155 -2.632,0.128 -3.964,0.111 -0.667,0.018 -1.33,-0.033 -1.988,-0.115 -0.661,-0.068 -1.319,-0.135 -1.972,-0.203 -1.3,-0.166 -2.555,-0.495 -3.786,-0.723 -1.216,-0.291 -2.356,-0.715 -3.459,-1.04 -0.274,-0.086 -0.545,-0.171 -0.811,-0.255 -0.257,-0.11 -0.509,-0.22 -0.758,-0.326 -0.497,-0.214 -0.977,-0.422 -1.438,-0.621 -0.915,-0.413 -1.792,-0.721 -2.485,-1.158 -0.713,-0.399 -1.335,-0.746 -1.847,-1.033 -1.026,-0.572 -1.612,-0.901 -1.612,-0.901 0,0 0.576,0.346 1.583,0.95 0.505,0.302 1.117,0.669 1.82,1.091 0.684,0.459 1.551,0.792 2.457,1.236 0.458,0.213 0.934,0.436 1.427,0.666 0.247,0.115 0.498,0.234 0.753,0.353 0.266,0.092 0.536,0.185 0.809,0.28 1.099,0.361 2.237,0.822 3.457,1.154 1.235,0.271 2.496,0.641 3.81,0.849 0.66,0.089 1.325,0.178 1.993,0.266 0.667,0.104 1.339,0.176 2.018,0.178 1.353,0.06 2.707,0.126 4.04,0.009 1.338,-0.024 2.635,-0.216 3.897,-0.393 1.261,-0.179 2.452,-0.472 3.59,-0.733 1.123,-0.323 1.97,-0.6 2.924,-0.966 0.102,-0.034 0.046,-0.072 0.046,-0.107 v 0.046 c -1,0.688 -1.841,1.496 -3.212,2.347 -3.815,2.386 -9.169,5.092 -15.107,6.246 -1.475,0.307 -2.923,0.493 -4.402,0.599 -1.481,0.11 -2.918,0.086 -4.332,0.013 -0.704,-0.073 -1.384,-0.145 -2.062,-0.214 -0.672,-0.116 -1.323,-0.229 -1.963,-0.339 -0.632,-0.154 -1.243,-0.305 -1.837,-0.448 -0.592,-0.156 -1.146,-0.361 -1.689,-0.527 -1.082,-0.347 -2.037,-0.774 -2.887,-1.132 -0.825,-0.415 -1.566,-0.74 -2.141,-1.074 -1.15,-0.666 -1.807,-1.047 -1.807,-1.047 0,0 0.648,0.399 1.78,1.097 0.567,0.349 1.3,0.694 2.118,1.132 0.843,0.384 1.792,0.837 2.87,1.217 0.542,0.181 1.097,0.4 1.69,0.573 0.596,0.162 1.211,0.331 1.844,0.502 0.644,0.129 1.306,0.261 1.982,0.397 0.684,0.088 1.383,0.179 2.095,0.272 1.429,0.113 2.914,0.178 4.421,0.105 1.505,-0.067 3.035,-0.215 4.543,-0.488 6.026,-1.005 11.648,-3.577 15.598,-5.891 -0.261,0.229 -0.51,0.453 -0.787,0.691 -3.971,3.43 -9.649,7.681 -16.047,10.591 -1.6,0.714 -3.227,1.381 -4.879,1.879 -1.641,0.537 -3.304,0.895 -4.922,1.184 -0.815,0.094 -1.617,0.213 -2.405,0.272 -0.789,0.017 -1.564,0.101 -2.317,0.063 -1.509,-0.024 -2.93,-0.187 -4.224,-0.427 -0.643,-0.147 -1.259,-0.288 -1.844,-0.422 -0.571,-0.189 -1.113,-0.368 -1.622,-0.535 -1.015,-0.346 -1.846,-0.789 -2.56,-1.081 -1.344,-0.759 -2.112,-1.193 -2.112,-1.193 0,0 0.759,0.451 2.087,1.242 0.706,0.31 1.531,0.773 2.542,1.144 0.509,0.181 1.05,0.374 1.62,0.575 0.587,0.149 1.204,0.306 1.849,0.468 1.299,0.272 2.731,0.471 4.256,0.531 0.762,0.056 1.545,-0.012 2.347,-0.012 0.799,-0.039 1.613,-0.141 2.442,-0.218 1.645,-0.255 3.34,-0.58 5.015,-1.087 1.688,-0.466 3.35,-1.103 4.988,-1.788 6.55,-2.8 12.392,-6.969 16.492,-10.347 1.167,-0.96 2.182,-1.846 3.063,-2.639 -0.056,7.435 -0.467,19.282 -1.578,24.041 -1.515,6.489 -8.944,19.209 1.585,34.373 10.529,15.165 13.557,19.925 13.124,33.336 -0.394,12.237 -3.941,12.032 5.222,29.833 0.001,0.006 0.003,0.01 0.004,0.016 0.423,2.039 0.625,4.533 0.68,7.222 0.059,2.694 -0.014,5.587 -0.103,8.489 -0.174,5.791 -0.412,11.68 0.527,16.009 0.269,1.067 0.541,2.047 0.973,2.84 0.383,0.815 0.899,1.42 1.357,1.868 0.498,0.404 0.916,0.687 1.244,0.793 0.313,0.135 0.48,0.208 0.48,0.208 0,0 -0.162,-0.082 -0.467,-0.234 -0.318,-0.123 -0.717,-0.429 -1.18,-0.848 -0.424,-0.463 -0.889,-1.076 -1.217,-1.888 -0.376,-0.789 -0.588,-1.765 -0.791,-2.817 -0.684,-4.279 -0.129,-10.079 0.369,-15.855 0.328,-3.803 0.633,-7.629 0.617,-11.094 0.169,0.313 0.33,0.613 0.506,0.936 0.213,-0.159 0.423,-0.334 0.634,-0.514 0.079,0.411 0.153,0.822 0.249,1.233 0.285,1.211 0.651,2.408 1.134,3.478 0.475,1.066 1.119,1.998 1.861,2.586 0.366,0.301 0.766,0.483 1.125,0.608 0.372,0.095 0.698,0.142 0.971,0.124 0.272,0.022 0.48,-0.052 0.622,-0.064 0.142,-0.024 0.218,-0.035 0.218,-0.035 0,0 -0.077,0.008 -0.22,0.02 -0.144,0.002 -0.352,0.062 -0.618,0.023 -0.269,0 -0.585,-0.069 -0.934,-0.18 -0.338,-0.145 -0.704,-0.342 -1.034,-0.65 -0.666,-0.608 -1.221,-1.531 -1.612,-2.592 -0.398,-1.062 -0.677,-2.246 -0.876,-3.444 -0.094,-0.57 -0.168,-1.142 -0.23,-1.708 0.302,-0.293 0.604,-0.602 0.9,-0.932 6.738,-7.513 11.91,-24.41 13.022,-29.105 0.471,-1.994 1.968,-3.055 3.773,-3.407 2.896,-0.564 6.586,0.711 8.136,2.975 1.976,2.889 5.383,14.59 4.69,23.774 -0.603,1.074 -1.39,2.519 -2.275,4.267 -1.921,3.828 -4.343,9.035 -5.887,14.57 -0.386,1.381 -0.718,2.779 -0.948,4.178 -0.246,1.393 -0.375,2.789 -0.391,4.143 0.011,1.355 0.113,2.673 0.45,3.881 0.125,0.611 0.404,1.167 0.599,1.716 0.311,0.502 0.517,1.043 0.885,1.45 0.344,0.425 0.651,0.845 1.052,1.144 0.369,0.33 0.722,0.634 1.117,0.834 0.728,0.496 1.46,0.719 2.035,0.955 0.588,0.199 1.077,0.267 1.396,0.354 0.323,0.077 0.495,0.117 0.495,0.117 0,0 -0.169,-0.051 -0.488,-0.143 -0.314,-0.107 -0.795,-0.203 -1.364,-0.434 -0.557,-0.265 -1.263,-0.525 -1.941,-1.049 -0.371,-0.214 -0.696,-0.529 -1.03,-0.866 -0.368,-0.303 -0.638,-0.727 -0.941,-1.145 -0.326,-0.403 -0.491,-0.933 -0.758,-1.416 -0.152,-0.537 -0.387,-1.065 -0.471,-1.654 -0.254,-1.159 -0.279,-2.422 -0.215,-3.717 0.09,-1.297 0.29,-2.631 0.605,-3.965 0.3,-1.338 0.7,-2.678 1.152,-4 1.208,-3.535 2.798,-6.918 4.346,-9.864 -0.124,1.063 0.951,0.413 2.592,-1.039 0.338,-0.3 0.699,-0.63 1.077,-0.989 -0.089,0.351 -0.178,0.704 -0.264,1.062 -0.191,0.789 -0.372,1.593 -0.536,2.401 -0.348,1.742 -0.626,3.505 -0.721,5.177 -0.041,0.838 -0.061,1.648 0.003,2.418 0.038,0.769 0.183,1.496 0.366,2.146 0.204,0.647 0.48,1.219 0.842,1.641 0.349,0.428 0.757,0.715 1.117,0.859 0.354,0.172 0.654,0.221 0.861,0.246 0.203,0.034 0.311,0.053 0.311,0.053 0,0 -0.107,-0.027 -0.305,-0.081 -0.201,-0.044 -0.491,-0.118 -0.817,-0.317 -0.332,-0.17 -0.689,-0.478 -0.976,-0.904 -0.3,-0.42 -0.505,-0.977 -0.64,-1.598 -0.115,-0.629 -0.189,-1.321 -0.156,-2.062 0.005,-0.735 0.098,-1.516 0.211,-2.315 0.241,-1.602 0.668,-3.287 1.163,-4.948 0.467,-1.554 0.999,-3.083 1.54,-4.519 0.254,-0.678 0.509,-1.328 0.762,-1.955 2.109,-2.103 4.353,-4.383 6.086,-5.908 5.409,-4.758 21.416,-18.387 15.575,-28.988 1.176,-0.11 2.182,-0.217 3.067,-0.323 4.446,-0.535 5.554,-1.066 6.441,-1.937 1.015,-0.996 1.752,-2.446 6.933,-4.879 0.076,-0.035 0.153,-0.056 0.229,-0.088 10.55,-4.568 22.916,16.494 48.985,12.047 0.408,-0.069 0.813,-0.157 1.219,-0.232 36.582,-6.778 66.671,-36.508 73.088,-69.917 1.308,-6.81 2.035,-13.34 2.312,-19.568 0.825,0.458 1.639,0.977 2.436,1.561 0.76,0.556 1.504,1.168 2.227,1.845 1.013,0.949 1.992,2.009 2.914,3.211 1.191,1.533 2.275,3.28 3.265,5.182 1.853,3.561 3.36,7.691 4.504,12.167 1.576,6.077 2.522,12.786 3.081,19.788 0.026,0.313 -0.071,0.627 -0.044,0.94 -0.067,-0.313 -0.818,-0.626 -0.818,-0.94 v 0.006 c 0,7.766 -0.472,15.916 -1.685,24.263 -0.148,1.044 0.04,2.1 -0.12,3.151 l 0.045,0.035 c -2.406,15.746 -6.038,32.158 -9.151,48.659 -1.67,8.806 -3.173,17.642 -4.249,26.39 -1.079,8.744 -1.713,17.412 -1.612,25.799 0.024,4.195 0.321,8.308 0.72,12.324 0.513,3.998 1.073,7.914 2.013,11.641 1.701,7.499 4.501,14.283 7.783,20.125 3.298,5.846 7.182,10.693 11.02,14.564 0.917,1.014 1.944,1.853 2.859,2.74 0.469,0.432 0.919,0.868 1.381,1.274 0.474,0.389 0.939,0.773 1.396,1.146 0.92,0.741 1.773,1.491 2.641,2.137 0.877,0.638 1.713,1.244 2.507,1.82 1.557,1.195 3.091,2.053 4.355,2.903 1.267,0.849 2.409,1.463 3.322,1.984 1.83,1.037 2.804,1.592 2.804,1.592 0,0 -0.98,-0.545 -2.817,-1.567 -0.918,-0.511 -2.068,-1.115 -3.343,-1.955 -1.272,-0.838 -2.814,-1.683 -4.386,-2.865 -0.8,-0.57 -1.641,-1.17 -2.526,-1.801 -0.876,-0.638 -1.736,-1.382 -2.665,-2.115 -0.461,-0.373 -0.931,-0.752 -1.409,-1.139 -0.467,-0.4 -0.922,-0.835 -1.397,-1.262 -0.926,-0.882 -1.963,-1.716 -2.89,-2.722 -3.888,-3.85 -7.832,-8.682 -11.204,-14.532 -3.354,-5.845 -6.234,-12.654 -8.015,-20.185 -0.981,-3.746 -1.58,-7.681 -2.131,-11.701 -0.44,-4.037 -0.773,-8.176 -0.834,-12.394 -0.179,-8.434 0.383,-17.147 1.387,-25.936 1.002,-8.791 2.437,-17.664 4.027,-26.5 3.162,-17.621 6.938,-35.125 9.152,-51.715 0.005,-0.045 0.013,-0.093 0.02,-0.139 1.131,-8.306 1.8,-16.385 1.87,-24.038 -0.001,-7.645 -0.59,-14.88 -2.128,-21.327 -0.042,-0.198 -0.096,-0.386 -0.141,-0.582 -0.261,-0.464 -0.529,-0.935 -0.804,-1.421 0.664,3.582 1.104,7.334 1.24,11.239 0.242,6.485 -0.174,13.315 -1.066,20.294 -0.399,3.21 -0.909,6.454 -1.485,9.72 -0.678,3.842 -1.45,7.715 -2.295,11.609 -1.58,7.198 -3.388,14.457 -5.284,21.686 -3.789,14.461 -7.843,28.838 -11.121,42.444 -3.287,13.601 -5.783,26.446 -6.965,37.58 -0.604,5.564 -0.902,10.691 -0.959,15.24 -0.055,4.548 0.165,8.512 0.438,11.765 0.299,3.252 0.669,5.796 0.966,7.52 0.31,1.723 0.475,2.642 0.475,2.642 0,0 -0.175,-0.917 -0.503,-2.636 -0.317,-1.723 -0.715,-4.262 -1.049,-7.514 -0.308,-3.256 -0.574,-7.223 -0.567,-11.779 0.008,-4.557 0.251,-9.698 0.795,-15.28 1.064,-11.169 3.425,-24.07 6.57,-37.726 3.134,-13.662 7.035,-28.095 10.663,-42.576 1.815,-7.242 3.539,-14.502 5.035,-21.687 0.991,-4.823 1.871,-9.608 2.589,-14.329 0.353,-2.313 0.677,-4.615 0.935,-6.891 0.809,-6.918 1.142,-13.652 0.836,-19.996 -0.289,-6.344 -1.308,-12.279 -2.956,-17.519 -0.027,-0.084 -0.058,-0.162 -0.085,-0.246 0.827,3.488 1.367,7.193 1.552,11.058 0.303,5.854 -0.095,12.022 -0.976,18.305 -0.43,3.129 -0.982,6.286 -1.628,9.463 -0.651,3.209 -1.397,6.441 -2.21,9.679 -1.62,6.442 -3.519,12.907 -5.535,19.335 -4.046,12.845 -8.543,25.527 -12.619,37.459 -4.088,11.924 -7.748,23.109 -10.514,32.806 -2.778,9.695 -4.675,17.889 -5.779,23.667 -0.568,2.888 -0.945,5.168 -1.187,6.726 -0.241,1.557 -0.37,2.388 -0.37,2.388 0,0 0.119,-0.832 0.34,-2.392 0.225,-1.562 0.573,-3.848 1.108,-6.742 1.035,-5.795 2.834,-14.018 5.497,-23.756 2.651,-9.74 6.181,-20.98 10.126,-32.959 3.934,-11.984 8.276,-24.717 12.158,-37.58 1.932,-6.432 3.747,-12.899 5.278,-19.32 0.98,-4.11 1.833,-8.199 2.538,-12.244 0.397,-2.27 0.758,-4.528 1.037,-6.764 0.796,-6.208 1.11,-12.268 0.744,-17.958 -0.329,-5.507 -1.341,-10.653 -2.968,-15.162 0.361,1.122 0.495,2.308 0.729,3.491 0.108,0.61 0.22,1.225 0.33,1.843 0.086,0.622 0.12,1.254 0.183,1.886 0.082,1.268 0.291,2.55 0.271,3.852 0.013,1.3 0.024,2.616 0.036,3.946 -0.151,2.65 -0.258,5.364 -0.651,8.088 -0.451,3.676 -1.123,7.405 -1.957,11.144 -0.404,1.813 -0.834,3.625 -1.32,5.438 -1.442,5.564 -3.182,11.135 -5.1,16.637 -3.798,11.018 -8.212,21.791 -12.412,31.853 -4.242,10.042 -8.201,19.416 -11.594,27.45 -3.364,8.044 -6.064,14.791 -7.902,19.535 -1.802,4.757 -2.831,7.475 -2.831,7.475 0,0 0.991,-2.733 2.727,-7.514 1.771,-4.77 4.378,-11.555 7.63,-19.649 3.281,-8.08 7.109,-17.508 11.21,-27.607 4.058,-10.114 8.315,-20.934 11.942,-31.959 1.834,-5.504 3.486,-11.066 4.838,-16.6 0.66,-2.609 1.23,-5.216 1.717,-7.808 0.544,-2.893 0.982,-5.766 1.288,-8.598 0.35,-2.683 0.416,-5.332 0.53,-7.918 -0.031,-1.294 -0.061,-2.571 -0.088,-3.833 0,-1.266 -0.221,-2.495 -0.317,-3.717 -0.068,-0.61 -0.109,-1.22 -0.199,-1.815 -0.115,-0.592 -0.23,-1.179 -0.344,-1.762 -0.247,-1.16 -0.384,-2.33 -0.769,-3.413 -0.009,-0.032 -0.018,-0.062 -0.027,-0.092 0.582,3.463 0.703,7.116 0.492,10.826 -0.28,4.528 -0.991,9.163 -2.114,13.759 -0.132,0.541 -0.279,1.086 -0.419,1.629 -1.04,4.051 -2.256,8.103 -3.669,12.082 -3.18,9.037 -7.033,17.797 -10.799,25.918 -3.795,8.11 -7.525,15.586 -10.735,21.983 -6.449,12.783 -10.748,21.304 -10.748,21.304 0,0 4.154,-8.594 10.384,-21.482 3.102,-6.45 6.701,-13.985 10.352,-22.145 3.621,-8.17 7.314,-16.972 10.316,-25.996 1.518,-4.508 2.787,-9.088 3.816,-13.637 0.038,-0.163 0.065,-0.328 0.1,-0.49 0.966,-4.386 1.553,-8.769 1.744,-13.011 0.172,-4.311 -0.09,-8.503 -1.04,-12.311 -0.089,0.726 -0.191,1.46 -0.292,2.192 0.179,2.9 0.043,5.866 -0.31,8.831 -0.4,3.265 -1.056,6.534 -1.916,9.744 -0.103,0.387 -0.197,0.776 -0.307,1.159 -1.986,7.177 -4.772,14.074 -7.607,20.408 -2.862,6.33 -5.799,12.101 -8.384,17.009 -2.583,4.911 -4.842,8.944 -6.407,11.774 -1.588,2.818 -2.495,4.43 -2.495,4.43 0,0 0.872,-1.631 2.396,-4.484 1.504,-2.862 3.673,-6.942 6.145,-11.905 2.474,-4.957 5.281,-10.787 7.993,-17.153 2.684,-6.37 5.3,-13.289 7.105,-20.412 0.258,-0.986 0.49,-1.976 0.706,-2.972 0.302,-1.392 0.556,-2.789 0.771,-4.187 -0.31,1.201 -0.645,2.396 -1.012,3.584 -3.151,10.23 -8.347,19.978 -15.26,28.644 -10.431,28.307 -29.525,67.942 -19.593,114.705 1.863,8.774 5.033,17.062 9.179,24.744 -1.126,0.321 -2.243,0.643 -3.344,0.957 -0.581,0.17 -1.159,0.338 -1.734,0.506 -0.581,0.141 -1.159,0.28 -1.733,0.42 -2.304,0.557 -4.55,1.099 -6.738,1.627 -2.187,0.556 -4.358,0.881 -6.451,1.316 -2.1,0.389 -4.133,0.846 -6.126,1.145 -3.986,0.58 -7.724,1.269 -11.229,1.684 -3.516,0.398 -6.769,0.767 -9.748,1.105 -2.992,0.222 -5.711,0.424 -8.145,0.604 -2.437,0.211 -4.607,0.297 -6.482,0.374 -1.873,0.084 -3.449,0.156 -4.717,0.212 -2.539,0.114 -3.849,0.172 -3.849,0.172 0,0 1.303,0.142 3.829,0.414 1.263,0.138 2.832,0.306 4.696,0.507 0.932,0.101 1.938,0.207 3.017,0.321 1.08,0.092 2.24,0.144 3.471,0.226 2.469,0.15 5.226,0.318 8.262,0.504 3.041,0.068 6.36,0.142 9.947,0.222 3.595,0.055 7.457,-0.103 11.596,-0.172 2.066,-0.06 4.189,-0.271 6.385,-0.407 2.191,-0.184 4.464,-0.25 6.776,-0.545 5.524,-0.54 11.4,-1.369 17.574,-2.531 27.179,40.142 81.383,59.669 108.768,36.269 -0.383,-0.145 -0.782,-0.295 -1.2,-0.459 -0.883,-0.342 -1.85,-0.732 -2.885,-1.157 -0.689,-0.285 -1.401,-0.581 -2.153,-0.9 -1.804,-0.863 -3.867,-1.681 -5.98,-2.847 -1.065,-0.563 -2.191,-1.121 -3.326,-1.754 -1.123,-0.663 -2.283,-1.35 -3.482,-2.059 -4.729,-2.942 -9.837,-6.681 -14.748,-11.49 -4.942,-4.775 -9.558,-10.713 -13.433,-17.574 -1.925,-3.436 -3.695,-7.088 -5.185,-10.949 -1.546,-3.838 -2.822,-7.877 -3.913,-12.032 -2.2,-8.312 -3.519,-17.125 -4.304,-26.102 -0.769,-8.986 -0.99,-18.146 -0.966,-27.292 0.012,-3.549 0.065,-7.094 0.13,-10.633 0.389,2.548 0.795,5.082 1.223,7.604 -0.018,1.013 -0.042,2.026 -0.055,3.038 -0.105,9.122 0.035,18.249 0.721,27.197 0.702,8.938 1.934,17.71 4.047,25.983 1.047,4.137 2.277,8.157 3.779,11.979 1.443,3.846 3.168,7.486 5.05,10.914 3.785,6.845 8.318,12.785 13.191,17.579 4.844,4.827 9.898,8.598 14.59,11.575 1.19,0.719 2.342,1.414 3.454,2.084 1.129,0.642 2.247,1.209 3.305,1.783 2.099,1.18 4.153,2.016 5.947,2.895 0.719,0.312 1.4,0.603 2.061,0.882 1.172,0.495 2.249,0.938 3.227,1.326 0.327,0.129 0.645,0.253 0.948,0.37 0.071,-0.061 0.139,-0.121 0.207,-0.182 8.77,1.358 16.827,1.932 24.188,1.799 81.822,-1.492 78.914,-88.658 45.103,-115.707 M 203.611,180.47 c -8.924,0.162 -15.521,1.135 -17.143,0.325 -1.623,-0.812 -4.179,-2.501 -5.531,-6.125 -2.474,-0.203 -5.35,-3.74 -3.853,-5.232 0.707,1.271 2.398,2.293 4.109,1.68 0.824,0.905 1.997,1.825 3.258,2.582 0.341,0.212 0.713,0.42 1.063,0.602 0.354,0.182 0.687,0.38 1.039,0.539 0.694,0.333 1.355,0.602 1.933,0.799 0.583,0.184 1.075,0.307 1.428,0.353 0.351,0.059 0.555,0.042 0.555,0.042 0,0 -0.204,-0.004 -0.544,-0.097 -0.342,-0.08 -0.815,-0.251 -1.366,-0.489 -0.547,-0.251 -1.165,-0.579 -1.8,-0.967 -0.321,-0.185 -0.641,-0.421 -0.973,-0.637 -0.335,-0.22 -0.647,-0.44 -0.969,-0.686 -1.092,-0.812 -2.054,-1.735 -2.708,-2.58 1.316,-1.413 -4.52,-4.906 -1.861,-7.254 0.31,0.856 1.343,1.977 2.626,2.308 0.635,0.846 1.368,1.74 2.173,2.591 0.317,0.35 0.665,0.661 1.015,0.992 0.363,0.282 0.693,0.576 1.058,0.833 0.718,0.523 1.4,0.966 2.008,1.312 1.207,0.705 2.058,1.078 2.058,1.078 0,0 -0.812,-0.454 -1.937,-1.264 -0.565,-0.399 -1.2,-0.904 -1.837,-1.469 -0.323,-0.274 -0.634,-0.609 -0.964,-0.923 -0.285,-0.321 -0.606,-0.655 -0.882,-1.017 -0.645,-0.804 -1.233,-1.642 -1.746,-2.441 0.085,-0.585 -0.058,-1.635 0.376,-1.944 1.115,-0.798 1.962,-0.777 2.536,-0.552 0.27,0.621 0.597,1.343 1.004,2.096 0.414,0.756 0.901,1.552 1.559,2.247 0.339,0.335 0.708,0.665 1.178,0.853 0.419,0.18 0.821,0.318 1.215,0.472 0.785,0.3 1.518,0.578 2.147,0.817 1.247,0.495 2.069,0.854 2.069,0.854 0,0 -0.781,-0.441 -1.978,-1.064 -0.6,-0.301 -1.302,-0.654 -2.053,-1.032 -0.373,-0.188 -0.757,-0.384 -1.149,-0.584 -0.344,-0.168 -0.637,-0.474 -0.905,-0.787 -0.526,-0.654 -0.925,-1.435 -1.254,-2.181 -0.247,-0.565 -0.446,-1.101 -0.625,-1.606 0.298,-0.296 0.876,-0.634 2.042,-0.858 5.192,-1 7.032,1.92 14.852,3.001 5.865,0.811 14.677,1.135 15.65,2.433 0.973,1.298 20.443,14.603 29.041,13.791 3.732,9.41 10.546,11.032 10.221,13.791 -0.268,2.282 -3.463,15.1 -0.154,24.143 -6.6,-0.943 -14.611,-0.071 -24.614,2.086 -6.132,1.322 -11.258,2.058 -15.609,2.392 4.637,-8.509 14.006,-24.77 14.743,-28.459 0.974,-4.867 -24.993,-14.864 -30.501,-14.764 m 293.037,121.42 c 0.031,-2.407 -0.017,-5.014 -0.054,-7.527 0.023,-5.162 -0.482,-9.974 -0.807,-14.969 -1.042,-9.896 -2.48,-19.935 -5.027,-29.854 -1.078,-5.013 -2.724,-9.895 -4.159,-14.877 -0.835,-2.45 -1.738,-4.886 -2.619,-7.338 -0.453,-1.221 -0.867,-2.459 -1.356,-3.67 l -1.521,-3.613 c -3.929,-9.714 -8.851,-19.114 -14.343,-28.257 -11.014,-18.288 -25.149,-35.09 -41.618,-49.609 -16.443,-14.554 -35.26,-26.859 -55.699,-36.076 -10.167,-4.727 -20.793,-8.544 -31.629,-11.705 -2.724,-0.744 -5.42,-1.606 -8.177,-2.24 l -8.271,-1.919 c -2.764,-0.622 -5.572,-1.026 -8.359,-1.545 l -4.193,-0.728 -4.222,-0.539 c -2.819,-0.328 -5.627,-0.771 -8.459,-0.996 l -8.502,-0.652 c -2.834,-0.233 -5.682,-0.207 -8.524,-0.315 l -4.265,-0.112 c -0.397,-0.001 0.129,-0.017 -1.021,-0.005 l -0.491,0.011 -0.978,0.022 -1.959,0.045 -3.918,0.087 -1.961,0.044 c -0.664,0.02 -1.263,0.012 -2.045,0.079 l -8.914,0.636 -2.228,0.17 -2.134,0.254 -4.258,0.528 -4.257,0.536 c -1.42,0.166 -2.822,0.468 -4.233,0.697 -11.308,1.797 -22.41,4.765 -33.266,8.324 -10.878,3.536 -21.406,8.059 -31.54,13.252 -5.116,2.515 -9.995,5.45 -14.909,8.299 -4.779,3.071 -9.565,6.123 -14.096,9.523 -9.141,6.671 -17.837,13.914 -25.777,21.859 -0.997,0.987 -2.038,1.931 -2.995,2.956 l -2.88,3.062 c -1.9,2.057 -3.881,4.037 -5.654,6.2 -1.812,2.127 -3.621,4.251 -5.428,6.373 -1.706,2.205 -3.409,4.405 -5.111,6.603 -1.733,2.174 -3.237,4.514 -4.836,6.778 -1.583,2.275 -3.168,4.543 -4.591,6.914 -1.452,2.352 -2.948,4.671 -4.346,7.044 -1.343,2.404 -2.684,4.804 -4.022,7.202 -0.687,1.188 -1.316,2.408 -1.913,3.642 l -1.828,3.679 -1.818,3.675 c -0.593,1.229 -1.11,2.494 -1.666,3.738 -1.079,2.504 -2.212,4.978 -3.23,7.495 -0.965,2.539 -1.928,5.073 -2.889,7.603 l -0.717,1.896 -0.631,1.925 -1.25,3.85 c -0.83,2.563 -1.668,5.117 -2.312,7.724 -0.685,2.594 -1.369,5.181 -2.051,7.764 -0.557,2.611 -1.112,5.216 -1.666,7.816 -0.26,1.304 -0.582,2.591 -0.786,3.902 l -0.633,3.922 c -0.39,2.615 -0.898,5.206 -1.179,7.822 -0.286,2.613 -0.57,5.221 -0.854,7.823 l -0.209,1.949 -0.121,1.954 -0.305,3.903 c -0.405,5.188 -0.473,10.365 -0.473,15.504 v 0.964 0.483 c 0,0.072 0.092,1.101 0.095,0.877 l 0.127,1.782 0.198,3.56 0.188,3.55 c 0.036,0.604 0.049,1.151 0.108,1.802 l 0.188,1.972 c 0.257,2.621 0.515,5.235 0.77,7.844 0.11,1.32 0.295,2.574 0.493,3.814 l 0.568,3.736 c 0.656,4.985 1.75,9.872 2.752,14.735 l 0.381,1.819 0.468,1.8 0.936,3.588 0.938,3.573 c 0.298,1.193 0.626,2.374 1.018,3.536 1.489,4.674 2.911,9.327 4.736,13.809 3.314,9.078 7.542,17.636 11.863,25.92 4.62,8.131 9.374,16.017 14.829,23.207 10.715,14.508 22.767,27.119 35.475,37.688 12.728,10.556 25.97,19.213 39.135,26.144 13.18,6.916 26.177,12.289 38.611,16.459 3.122,0.99 6.194,1.963 9.215,2.92 3.042,0.873 6.058,1.638 9,2.436 1.472,0.394 2.931,0.783 4.376,1.167 1.46,0.323 2.907,0.641 4.341,0.955 2.864,0.614 5.673,1.215 8.427,1.805 2.764,0.52 5.489,0.941 8.141,1.399 2.661,0.417 5.235,0.954 7.792,1.24 2.549,0.312 5.039,0.619 7.468,0.916 2.43,0.274 4.785,0.623 7.104,0.758 18.468,1.837 33.006,1.302 42.839,1.216 9.832,-0.545 15.075,-0.836 15.075,-0.836 0,0 -5.215,-0.488 -14.993,-1.402 -2.436,-0.268 -5.149,-0.638 -8.134,-1.007 -1.491,-0.188 -3.049,-0.384 -4.676,-0.589 -0.811,-0.103 -1.639,-0.208 -2.485,-0.314 -0.842,-0.139 -1.699,-0.279 -2.574,-0.422 -3.488,-0.58 -7.238,-1.201 -11.237,-1.867 -3.981,-0.736 -8.188,-1.633 -12.63,-2.515 -2.227,-0.403 -4.476,-1.024 -6.793,-1.577 -2.313,-0.56 -4.684,-1.136 -7.11,-1.724 -2.432,-0.548 -4.863,-1.352 -7.374,-2.039 -2.502,-0.729 -5.067,-1.423 -7.659,-2.217 -2.568,-0.862 -5.191,-1.739 -7.863,-2.633 -1.335,-0.441 -2.682,-0.885 -4.042,-1.334 -1.339,-0.508 -2.69,-1.023 -4.053,-1.541 -2.72,-1.045 -5.504,-2.059 -8.296,-3.176 -2.759,-1.197 -5.564,-2.412 -8.416,-3.647 -11.288,-5.148 -22.991,-11.179 -34.521,-18.687 -11.532,-7.479 -22.984,-16.271 -33.609,-26.697 -10.64,-10.387 -20.569,-22.273 -29.022,-35.651 -2.208,-3.283 -4.088,-6.8 -6.098,-10.267 -1.039,-1.711 -1.905,-3.531 -2.815,-5.332 -0.906,-1.801 -1.815,-3.609 -2.727,-5.422 -3.296,-7.426 -6.521,-15.006 -8.885,-23 -1.362,-3.936 -2.279,-8.033 -3.39,-12.09 -0.292,-1.011 -0.522,-2.039 -0.724,-3.078 l -0.647,-3.107 -0.653,-3.113 -0.329,-1.557 -0.245,-1.581 c -0.64,-4.213 -1.389,-8.429 -1.725,-12.732 l -0.33,-3.218 c -0.121,-1.08 -0.228,-2.149 -0.252,-3.175 -0.105,-2.072 -0.209,-4.15 -0.314,-6.232 l -0.085,-1.561 c -0.026,-0.528 -0.008,-1.166 -0.014,-1.744 l -0.467,-3.554 -0.468,-3.564 v -1.786 c 0,-0.522 0.468,0.207 0.477,-0.017 l 0.254,-0.412 0.16,-0.823 c 0.219,-4.394 0.383,-8.812 0.915,-13.217 l 0.348,-3.311 0.177,-1.658 0.255,-1.65 c 0.326,-2.197 0.656,-4.401 0.984,-6.611 0.315,-2.208 0.853,-4.386 1.262,-6.586 l 0.658,-3.295 c 0.21,-1.102 0.538,-2.181 0.8,-3.271 0.55,-2.178 1.101,-4.36 1.654,-6.545 0.662,-2.155 1.326,-4.312 1.991,-6.475 0.609,-2.179 1.428,-4.293 2.188,-6.43 l 1.138,-3.208 0.57,-1.606 0.653,-1.575 c 0.866,-2.105 1.733,-4.211 2.602,-6.322 0.914,-2.089 1.935,-4.138 2.893,-6.215 0.496,-1.031 0.95,-2.083 1.478,-3.101 l 1.619,-3.036 1.616,-3.043 c 0.523,-1.023 1.077,-2.03 1.687,-3.008 1.176,-1.977 2.355,-3.957 3.535,-5.94 1.226,-1.955 2.543,-3.856 3.806,-5.791 1.236,-1.956 2.624,-3.812 4.003,-5.676 1.394,-1.853 2.685,-3.784 4.197,-5.554 1.451,-1.812 2.905,-3.629 4.359,-5.446 l 4.627,-5.242 c 1.5,-1.789 3.198,-3.4 4.808,-5.093 l 2.44,-2.519 c 0.809,-0.845 1.699,-1.61 2.544,-2.42 6.722,-6.524 14.078,-12.419 21.767,-17.84 1.951,-1.316 3.813,-2.766 5.844,-3.966 l 5.976,-3.778 c 4.104,-2.323 8.15,-4.76 12.41,-6.807 8.427,-4.258 17.162,-7.97 26.187,-10.832 9.003,-2.897 18.197,-5.296 27.564,-6.755 1.168,-0.197 2.324,-0.468 3.501,-0.605 l 3.526,-0.455 3.524,-0.461 1.758,-0.225 1.682,-0.129 6.726,-0.554 c 0.518,-0.061 1.231,-0.061 1.871,-0.085 l 1.958,-0.055 3.918,-0.109 1.959,-0.055 0.98,-0.028 0.153,-0.004 c 0.076,0.003 0.334,0.003 0.295,0.007 l 3.565,0.081 c 2.375,0.086 4.758,0.026 7.126,0.22 l 7.106,0.504 c 2.369,0.169 4.714,0.544 7.072,0.799 9.398,1.225 18.731,2.958 27.825,5.505 9.101,2.495 18.054,5.524 26.624,9.351 8.587,3.771 16.943,8.031 24.817,12.99 7.894,4.908 15.543,10.192 22.541,16.175 1.818,1.418 3.499,2.983 5.201,4.522 1.683,1.555 3.459,3.018 5.035,4.673 1.621,1.613 3.24,3.222 4.857,4.829 1.534,1.684 3.067,3.363 4.598,5.04 5.967,6.83 11.69,13.844 16.513,21.381 4.887,7.483 9.34,15.199 12.936,23.226 l 1.402,2.983 c 0.452,1 0.832,2.029 1.251,3.039 0.826,2.03 1.649,4.054 2.47,6.074 1.385,4.128 3.016,8.17 4.111,12.354 2.582,8.262 4.189,16.703 5.512,25.088 0.467,4.192 1.141,8.487 1.296,12.443 0.117,2.037 0.325,3.966 0.428,6.083 0.033,2.264 0.066,4.52 0.099,6.767 l 0.035,2.385 c 2.617,11.591 3.594,22.467 3.642,31.469 0.084,15.626 1.112,37.639 3.931,57.01 1.685,-3.485 3.284,-7.043 4.718,-10.698 1.736,-3.998 3.086,-8.15 4.59,-12.312 0.73,-2.084 1.315,-4.214 1.983,-6.337 0.636,-2.13 1.34,-4.261 1.858,-6.433 0.558,-2.168 1.117,-4.347 1.679,-6.533 0.585,-2.185 0.966,-4.406 1.45,-6.627 0.996,-4.442 1.693,-8.946 2.445,-13.49 0.414,-2.27 0.639,-4.557 0.946,-6.852 0.276,-2.295 0.611,-4.601 0.838,-6.914 0.207,-2.315 0.413,-4.641 0.621,-6.973 l 0.154,-1.752 0.078,-0.877 0.039,-0.439 c 0.013,-0.064 0.042,-1.035 0.038,-0.822 l 0.151,-3.364 c 0.101,-2.246 0.203,-4.5 0.305,-6.76"
           style="fill:#000000;fill-opacity:1;fill-rule:nonzero;stroke:none"
           id="path9032"
           inkscape:connector-curvature="0" /></g></g></g></svg>